<svg width="115" height="115" viewBox="0 0 115 115" fill="none" xmlns="http://www.w3.org/2000/svg">
<path d="M43.3541 13.226C43.4999 13.5697 43.5659 13.9168 43.5523 14.2673C43.535 14.6091 43.4559 14.9366 43.3149 15.2498C43.1703 15.5544 42.9689 15.8324 42.7105 16.0839C42.4485 16.3267 42.1413 16.5228 41.789 16.6722L37.4839 18.4972L33.6044 9.3455L37.9997 7.48224C38.3177 7.34746 38.6347 7.29418 38.9508 7.32239C39.2669 7.35059 39.5625 7.43816 39.8376 7.58508C40.1092 7.72341 40.3523 7.91433 40.567 8.15783C40.7867 8.3891 40.9567 8.64652 41.0769 8.93009C41.2736 9.39412 41.3379 9.86866 41.2698 10.3537C41.1981 10.8302 40.996 11.2503 40.6637 11.6142C41.2535 11.5467 41.788 11.6597 42.2672 11.9533C42.7551 12.2432 43.1174 12.6674 43.3541 13.226ZM42.3863 13.4538C42.2916 13.2304 42.1618 13.0319 41.9971 12.8585C41.8287 12.6765 41.6386 12.5391 41.427 12.4463C41.2203 12.3413 40.9981 12.2835 40.7604 12.2727C40.5276 12.2497 40.2995 12.2856 40.0761 12.3803L36.5701 13.8666L38.04 17.3339L41.4557 15.8859C41.6877 15.7875 41.8868 15.6474 42.053 15.4654C42.2192 15.2835 42.3425 15.0842 42.423 14.8676C42.4999 14.6424 42.5376 14.4085 42.5361 14.1658C42.5309 13.9146 42.481 13.6772 42.3863 13.4538ZM34.8271 9.75475L36.2587 13.1318L39.4037 11.7986C39.6272 11.7039 39.8134 11.5692 39.9623 11.3945C40.1199 11.2162 40.2347 11.0206 40.3066 10.8076C40.3871 10.591 40.4241 10.3675 40.4177 10.1371C40.4076 9.89808 40.3552 9.66686 40.2605 9.44344C40.1621 9.21142 40.0306 9.00869 39.8658 8.83524C39.7096 8.65815 39.5318 8.5257 39.3324 8.4379C39.138 8.33787 38.928 8.28495 38.7025 8.27916C38.482 8.26114 38.2643 8.29766 38.0495 8.38872L34.8271 9.75475Z" fill="#1A312E"/>
<path d="M53.8816 12.9037L54.0219 13.7603L47.4317 14.8395L45.8253 5.03015L52.2912 3.97132L52.4315 4.82791L46.9189 5.73063L47.4981 9.26752L52.3061 8.48019L52.4396 9.29533L47.6316 10.0827L48.2447 13.8268L53.8816 12.9037Z" fill="#1A312E"/>
<path d="M63.3209 5.95625C63.06 5.62296 62.6978 5.34445 62.2342 5.12073C61.7799 4.89756 61.2593 4.76864 60.6723 4.73397C59.7872 4.68169 59.1344 4.81143 58.714 5.12319C58.2941 5.42562 58.0673 5.86101 58.0338 6.42936C58.0162 6.7275 58.0528 6.97743 58.1437 7.17915C58.2445 7.37209 58.4026 7.54505 58.618 7.69801C58.8427 7.85152 59.1243 7.9897 59.463 8.11255C59.811 8.23595 60.2196 8.36292 60.6887 8.49348C61.2132 8.63665 61.6809 8.79049 62.0919 8.95501C62.5035 9.11021 62.852 9.30376 63.1375 9.53567C63.4235 9.75825 63.6367 10.028 63.7769 10.3448C63.9177 10.6523 63.9749 11.0296 63.9485 11.4769C63.9215 11.9334 63.8096 12.3241 63.6128 12.6491C63.4159 12.9741 63.1525 13.239 62.8225 13.4439C62.4925 13.6488 62.1053 13.7942 61.6608 13.8802C61.2168 13.9568 60.7386 13.98 60.2262 13.9497C58.6702 13.8578 57.3709 13.2996 56.3282 12.275L56.8504 11.5064C57.1912 11.9099 57.6611 12.2649 58.26 12.5714C58.8596 12.8686 59.5367 13.0395 60.2913 13.084C61.0833 13.1308 61.7111 13.0276 62.1749 12.7745C62.6391 12.5121 62.8883 12.0921 62.9225 11.5144C62.9406 11.207 62.8905 10.9469 62.7722 10.7342C62.6637 10.5128 62.4881 10.3201 62.2454 10.1561C62.0032 9.9829 61.6944 9.82909 61.319 9.69473C60.9529 9.56091 60.5262 9.42352 60.039 9.28255C59.5244 9.13061 59.0753 8.97787 58.6917 8.82431C58.3081 8.67076 57.987 8.48818 57.7283 8.27656C57.479 8.0655 57.2924 7.82074 57.1686 7.54229C57.0547 7.25507 57.0096 6.91114 57.0332 6.51051C57.0602 6.05397 57.168 5.65363 57.3566 5.30948C57.5551 4.95657 57.8149 4.67273 58.1362 4.45796C58.4673 4.23443 58.8507 4.07476 59.2864 3.97895C59.732 3.87437 60.2157 3.83749 60.7375 3.86831C61.3897 3.90683 61.9659 4.04371 62.4663 4.27895C62.9765 4.50542 63.4305 4.81272 63.8283 5.20085L63.3209 5.95625Z" fill="#1A312E"/>
<path d="M66.7893 14.662L69.5674 5.11809L73.5194 6.26849C73.9316 6.38849 74.2819 6.58766 74.5703 6.86602C74.8702 7.13802 75.1039 7.45392 75.2713 7.81373C75.4414 8.16457 75.5414 8.53879 75.5715 8.93637C75.6106 9.33656 75.5766 9.72037 75.4696 10.0878C75.3549 10.4821 75.1768 10.8434 74.9354 11.1717C74.7056 11.4936 74.4293 11.7583 74.1065 11.9656C73.7837 12.173 73.4272 12.3122 73.0371 12.3834C72.656 12.4571 72.2593 12.434 71.8471 12.314L68.7419 11.4101L67.7168 14.932L66.7893 14.662ZM68.9845 10.5767L72.0359 11.465C72.3137 11.5458 72.5816 11.5606 72.8395 11.5093C73.109 11.4517 73.3531 11.3478 73.5718 11.1976C73.7931 11.0384 73.9864 10.842 74.1517 10.6082C74.3196 10.3654 74.4452 10.1006 74.5287 9.81388C74.6148 9.51815 74.6419 9.2247 74.61 8.93352C74.5897 8.63598 74.5186 8.36255 74.3968 8.11323C74.2839 7.86651 74.1221 7.65417 73.9115 7.4762C73.7124 7.29188 73.4829 7.1619 73.223 7.08625L70.2523 6.22149L68.9845 10.5767Z" fill="#1A312E"/>
<path d="M79.6551 19.9012C79.0611 19.5489 78.5866 19.1047 78.2317 18.5687C77.8896 18.0295 77.6609 17.4544 77.5457 16.8435C77.4353 16.2246 77.4384 15.5972 77.5552 14.9611C77.672 14.325 77.8923 13.734 78.216 13.1881C78.554 12.6182 78.9781 12.1318 79.4882 11.729C80.0064 11.331 80.5651 11.0384 81.1644 10.8512C81.7637 10.664 82.3772 10.5992 83.005 10.6568C83.6375 10.7064 84.2388 10.9002 84.8087 11.2382C85.4028 11.5905 85.8685 12.0403 86.2059 12.5876C86.556 13.1316 86.7823 13.7107 86.8847 14.3248C86.9951 14.9437 86.9919 15.5712 86.8752 16.2073C86.7631 16.8353 86.5477 17.4183 86.2287 17.9561C85.8907 18.5261 85.4626 19.0101 84.9444 19.4082C84.4343 19.811 83.8796 20.1059 83.2803 20.2931C82.6938 20.477 82.0843 20.5441 81.4517 20.4946C80.824 20.437 80.2251 20.2392 79.6551 19.9012ZM79.0589 13.688C78.7828 14.1536 78.5925 14.6484 78.4879 15.1724C78.3881 15.6883 78.3787 16.1982 78.4598 16.702C78.5455 17.1977 78.7216 17.6602 78.9879 18.0894C79.259 18.5106 79.6314 18.8617 80.105 19.1425C80.5867 19.4282 81.0861 19.5833 81.6032 19.6078C82.1204 19.6324 82.6154 19.557 83.0883 19.3817C83.5612 19.2064 83.9961 18.9488 84.3929 18.6091C84.7977 18.274 85.1311 17.8858 85.3929 17.4442C85.669 16.9786 85.853 16.4855 85.9447 15.9648C86.0493 15.4408 86.0587 14.9309 85.9729 14.4352C85.8871 13.9394 85.7087 13.4809 85.4376 13.0597C85.1713 12.6305 84.8053 12.2779 84.3397 12.0017C83.858 11.7161 83.3586 11.561 82.8414 11.5365C82.3291 11.5039 81.8364 11.5752 81.3635 11.7505C80.8906 11.9259 80.4517 12.181 80.0469 12.516C79.6501 12.8558 79.3208 13.2465 79.0589 13.688Z" fill="#1A312E"/>
<path d="M86.1185 24.2333L93.1372 17.2146L93.8203 17.8976L89.7417 21.9762L97.7009 21.7584L98.4632 22.5207L92.5037 22.7385L91.5929 29.7077L90.8306 28.9455L91.6721 22.7187L88.9596 22.7583L86.8016 24.9164L86.1185 24.2333Z" fill="#1A312E"/>
<path d="M97.2416 37.021L96.5047 37.4798L92.9748 31.811L101.413 26.5568L104.876 32.1187L104.139 32.5775L101.186 27.8356L98.1441 29.7301L100.719 33.8658L100.018 34.3025L97.4429 30.1667L94.2223 32.1722L97.2416 37.021Z" fill="#1A312E"/>
<path d="M101.273 56.662L102.366 55.408C101.912 55.0563 101.54 54.6361 101.251 54.1473C100.971 53.6576 100.804 53.1153 100.749 52.5205C100.709 52.0837 100.736 51.6688 100.831 51.2757C100.926 50.8827 101.076 50.5313 101.282 50.2218C101.498 49.9206 101.761 49.6714 102.07 49.474C102.39 49.2758 102.749 49.1583 103.149 49.1213C103.483 49.0904 103.79 49.1183 104.07 49.2049C104.359 49.2906 104.629 49.4204 104.879 49.5941C105.139 49.7669 105.383 49.9693 105.61 50.2014C105.838 50.4334 106.062 50.6798 106.283 50.9406C106.53 50.6647 106.752 50.4287 106.949 50.2323C107.147 50.0453 107.33 49.8878 107.496 49.76C107.672 49.6406 107.842 49.5499 108.005 49.488C108.168 49.4261 108.338 49.3869 108.514 49.3706C108.821 49.3423 109.11 49.3765 109.381 49.4733C109.663 49.5785 109.912 49.7336 110.127 49.9386C110.343 50.1436 110.521 50.3896 110.66 50.6767C110.799 50.9731 110.886 51.2979 110.918 51.6511C110.948 51.9763 110.93 52.2827 110.863 52.5701C110.796 52.8575 110.683 53.1116 110.525 53.3324C110.378 53.5616 110.189 53.7478 109.958 53.8909C109.728 54.0341 109.469 54.1189 109.181 54.1456C108.892 54.1722 108.622 54.1363 108.369 54.0378C108.117 53.9486 107.875 53.8163 107.644 53.6409C107.412 53.4654 107.186 53.2566 106.967 53.0145C106.757 52.7714 106.541 52.5102 106.318 52.2308L103.675 55.273C104.045 55.4262 104.44 55.5351 104.858 55.5995C105.287 55.6724 105.728 55.6878 106.184 55.6457L106.259 56.4542C105.682 56.4982 105.131 56.4695 104.606 56.368C104.082 56.2758 103.593 56.1147 103.141 55.8847L101.388 57.9166L101.273 56.662ZM101.525 52.5473C101.569 53.0213 101.707 53.449 101.939 53.8306C102.181 54.2207 102.493 54.5527 102.874 54.8268L105.762 51.5371C105.373 51.0763 104.972 50.7009 104.561 50.4108C104.159 50.1199 103.708 49.9976 103.206 50.044C102.899 50.0723 102.631 50.1627 102.401 50.3152C102.182 50.476 101.998 50.6711 101.851 50.9003C101.713 51.1379 101.616 51.4 101.558 51.6866C101.509 51.9723 101.498 52.2592 101.525 52.5473ZM108.623 50.2463C108.512 50.2566 108.402 50.2808 108.293 50.319C108.185 50.3665 108.06 50.4389 107.919 50.5363C107.788 50.6422 107.632 50.7784 107.451 50.9452C107.279 51.1203 107.075 51.3454 106.838 51.6204C107.049 51.8727 107.244 52.1031 107.422 52.3116C107.611 52.5285 107.792 52.7086 107.964 52.852C108.147 53.0038 108.326 53.1138 108.501 53.182C108.686 53.2586 108.876 53.2879 109.071 53.2699C109.434 53.2364 109.719 53.0741 109.926 52.7832C110.134 52.4922 110.218 52.1376 110.18 51.7193C110.158 51.487 110.101 51.2767 110.009 51.0884C109.916 50.9001 109.798 50.7376 109.654 50.6009C109.511 50.4735 109.352 50.3758 109.177 50.3076C109.003 50.2487 108.819 50.2283 108.623 50.2463Z" fill="#1A312E"/>
<path d="M99.2416 70.4021L108.511 73.9904L108.163 74.8912L99.7023 71.6163L97.6252 76.9823L96.8157 76.669L99.2416 70.4021Z" fill="#1A312E"/>
<path d="M94.2881 82.4228C93.9362 82.9397 93.7412 83.4336 93.7031 83.9044C93.6674 84.3881 93.7394 84.838 93.9192 85.2539C94.1015 85.6828 94.3708 86.075 94.7273 86.4305C95.0784 86.7937 95.4623 87.1171 95.879 87.4006L100.022 90.2207L99.4709 91.0308L95.3276 88.2108C94.772 87.8327 94.2855 87.4112 93.868 86.9464C93.4582 86.4869 93.1588 85.9896 92.9698 85.4545C92.7755 84.9271 92.7162 84.3674 92.7918 83.7753C92.8674 83.1832 93.1205 82.5708 93.5511 81.9381C93.9975 81.2823 94.4861 80.8132 95.0169 80.531C95.5554 80.254 96.1094 80.1117 96.679 80.1042C97.2486 80.0968 97.8197 80.2032 98.3923 80.4236C98.9649 80.6439 99.5135 80.9327 100.038 81.2898L104.182 84.1098L103.638 84.9084L99.4946 82.0883C99.0626 81.7943 98.6132 81.5505 98.1465 81.357C97.6798 81.1636 97.22 81.0595 96.7671 81.0448C96.3089 81.0378 95.8679 81.1384 95.4439 81.3466C95.02 81.5548 94.6347 81.9135 94.2881 82.4228Z" fill="#1A312E"/>
<path d="M95.3962 95.4504L90.0802 94.3473L90.4985 99.7604L89.6893 100.473L89.2289 94.164L83.2067 92.9365L84.016 92.2243L89.1554 93.2963L88.7455 88.0623L89.5652 87.3409L90.0172 93.4704L96.216 94.729L95.3962 95.4504Z" fill="#1A312E"/>
<path d="M77.8152 97.0361C77.2597 97.3232 76.8531 97.6647 76.5954 98.0605C76.3337 98.469 76.1829 98.8989 76.1431 99.3502C76.0992 99.8142 76.1493 100.287 76.2936 100.77C76.4295 101.256 76.6131 101.723 76.8446 102.171L79.1458 106.623L78.2752 107.073L75.974 102.621C75.6654 102.024 75.4382 101.422 75.2923 100.814C75.1507 100.215 75.1242 99.6352 75.2127 99.0746C75.2929 98.5184 75.5071 97.9979 75.8555 97.5132C76.2038 97.0285 76.7179 96.6104 77.3978 96.259C78.1026 95.8947 78.7555 95.7148 79.3567 95.7193C79.9622 95.7321 80.5171 95.8707 81.0216 96.1353C81.526 96.3999 81.9776 96.7654 82.3762 97.2317C82.7749 97.6981 83.1199 98.2132 83.4113 98.777L85.7126 103.229L84.8544 103.673L82.5532 99.2205C82.3132 98.7562 82.034 98.3279 81.7157 97.9356C81.3973 97.5433 81.0425 97.2329 80.6513 97.0044C80.2517 96.7801 79.8159 96.6587 79.344 96.6399C78.872 96.6212 78.3624 96.7533 77.8152 97.0361Z" fill="#1A312E"/>
<path d="M70.2673 99.3297L72.4255 109.033L68.3393 109.941C67.9203 110.035 67.5128 110.03 67.1169 109.926C66.7231 109.832 66.3662 109.668 66.0463 109.433C65.7284 109.207 65.4606 108.928 65.2428 108.594C65.016 108.262 64.8611 107.909 64.778 107.535C64.6989 107.18 64.6776 106.826 64.714 106.474C64.7433 106.133 64.8242 105.809 64.9568 105.502C65.0913 105.204 65.2705 104.935 65.4941 104.694C65.7199 104.462 65.9896 104.278 66.3034 104.141L63.079 100.929L64.1586 100.688L67.2509 103.758L70.1208 103.12L69.3244 99.5394L70.2673 99.3297ZM70.3092 103.967L67.125 104.675C66.8426 104.738 66.6007 104.854 66.3992 105.023C66.1907 105.204 66.0278 105.417 65.9104 105.663C65.793 105.909 65.7182 106.174 65.6858 106.458C65.6535 106.743 65.6697 107.031 65.7346 107.322C65.7994 107.614 65.9159 107.88 66.084 108.12C66.245 108.371 66.4389 108.576 66.6657 108.736C66.8834 108.898 67.1284 109.011 67.4007 109.075C67.664 109.14 67.9277 109.144 68.1919 109.085L71.2941 108.395L70.3092 103.967Z" fill="#1A312E"/>
<path d="M60.3146 111.058L57.106 105.678L53.7766 110.993L52.7126 110.982L56.639 104.777L56.676 101.081L57.642 101.091L57.6047 104.815L61.3786 111.069L60.3146 111.058Z" fill="#1A312E"/>
<path d="M41.0837 98.0709L36.5818 106.933L33.5862 105.411C32.8789 105.052 32.3181 104.621 31.9039 104.117C31.4897 103.613 31.2094 103.073 31.0628 102.496C30.9078 101.915 30.8804 101.31 30.9804 100.68C31.0762 100.059 31.2784 99.4443 31.587 98.8368C31.9294 98.1628 32.3399 97.6019 32.8186 97.1542C33.2931 96.7148 33.8127 96.3925 34.3775 96.1874C34.9381 95.9906 35.5354 95.9172 36.1696 95.9671C36.7995 96.0254 37.439 96.2194 38.088 96.5491L41.0837 98.0709ZM32.4607 99.2807C32.1902 99.8132 32.0178 100.338 31.9435 100.855C31.865 101.381 31.889 101.88 32.0154 102.352C32.1334 102.82 32.3561 103.247 32.6834 103.634C33.0065 104.028 33.4384 104.363 33.9793 104.637L36.1137 105.722L39.8293 98.4072L37.6949 97.323C37.1457 97.044 36.6166 96.8904 36.1075 96.8621C35.5859 96.8379 35.1012 96.9162 34.6535 97.097C34.2015 97.2861 33.7927 97.5653 33.4272 97.9344C33.0492 98.3077 32.727 98.7565 32.4607 99.2807Z" fill="#1A312E"/>
<path d="M25.6713 88.7759L26.2386 88.1189L31.293 92.4834L24.7967 100.007L19.8376 95.7247L20.4049 95.0677L24.6328 98.7185L26.9752 96.0058L23.2876 92.8217L23.8275 92.1965L27.515 95.3806L29.9946 92.509L25.6713 88.7759Z" fill="#1A312E"/>
<path d="M14.2704 85.9881C14.1823 86.402 14.2014 86.8585 14.3276 87.3576C14.4482 87.8491 14.6837 88.331 15.034 88.8033C15.5623 89.5154 16.0809 89.9325 16.5899 90.0546C17.0914 90.1823 17.5707 90.0766 18.028 89.7374C18.2679 89.5594 18.4359 89.3708 18.5322 89.1716C18.6154 88.9704 18.6464 88.7382 18.6254 88.4749C18.5988 88.2041 18.5239 87.8994 18.4006 87.5609C18.2717 87.2149 18.1067 86.8201 17.9056 86.3767C17.6786 85.8827 17.4962 85.4253 17.3584 85.0046C17.2131 84.5894 17.1376 84.198 17.1321 83.8302C17.1191 83.468 17.189 83.1314 17.3418 82.8205C17.4871 82.5151 17.7397 82.229 18.0995 81.962C18.4668 81.6896 18.8382 81.5244 19.2137 81.4667C19.5892 81.4089 19.9614 81.4407 20.3304 81.5621C20.6994 81.6835 21.0595 81.887 21.4108 82.1726C21.7547 82.4637 22.0795 82.8154 22.3853 83.2277C23.314 84.4795 23.7204 85.834 23.6045 87.2913L22.68 87.3845C22.7704 86.8642 22.7408 86.276 22.5912 85.62C22.4341 84.9696 22.1303 84.3408 21.6799 83.7336C21.2072 83.0965 20.725 82.6814 20.2332 82.4884C19.7339 82.301 19.2519 82.3797 18.7871 82.7244C18.5398 82.908 18.3725 83.1134 18.2855 83.3406C18.1854 83.566 18.1504 83.8243 18.1806 84.1157C18.2033 84.4126 18.2837 84.7481 18.4218 85.1222C18.5542 85.4887 18.7229 85.904 18.9276 86.368C19.1416 86.8601 19.3129 87.3025 19.4415 87.6951C19.5701 88.0878 19.6364 88.4512 19.6402 88.7854C19.6385 89.1121 19.5707 89.4122 19.4367 89.6859C19.2897 89.9577 19.055 90.2132 18.7327 90.4523C18.3654 90.7248 17.9892 90.8992 17.6043 90.9756C17.2063 91.05 16.8219 91.0331 16.451 90.9247C16.067 90.8145 15.6984 90.6231 15.3452 90.3505C14.9788 90.0761 14.64 89.729 14.3286 89.3092C13.9393 88.7845 13.6742 88.2548 13.5333 87.7202C13.3793 87.1837 13.3234 86.6383 13.3655 86.0841L14.2704 85.9881Z" fill="#1A312E"/>
<path d="M18.7779 77.5995L9.9283 82.095L9.4908 81.2338L18.3404 76.7383L18.7779 77.5995Z" fill="#1A312E"/>
<path d="M13.2441 66.7984C14.4708 67.4026 15.2517 68.278 15.5868 69.4247C15.7753 70.0698 15.8105 70.7061 15.6925 71.3337C15.5719 71.9524 15.342 72.5301 15.0029 73.0667C14.6612 73.5944 14.2364 74.054 13.7285 74.4456C13.2117 74.8397 12.6486 75.1258 12.0394 75.3038C11.4034 75.4897 10.7628 75.5602 10.1176 75.5154C9.46988 75.4616 8.87022 75.3062 8.31868 75.0492C7.75555 74.786 7.26555 74.4235 6.84867 73.9619C6.42021 73.494 6.11305 72.942 5.92717 72.3059C5.79103 71.8401 5.72174 71.4033 5.71929 70.9956C5.70526 70.5816 5.74911 70.1993 5.85085 69.8487C5.94101 69.4917 6.08327 69.1633 6.27762 68.8634C6.46301 68.5662 6.68575 68.2969 6.94584 68.0556L7.64166 68.6398C7.14202 69.1262 6.82665 69.6608 6.69554 70.2436C6.56443 70.8265 6.59181 71.4359 6.77769 72.072C6.93215 72.6005 7.1842 73.0471 7.53382 73.4117C7.88084 73.7673 8.28698 74.0424 8.75225 74.237C9.20595 74.4253 9.69825 74.5294 10.2291 74.5493C10.7511 74.5718 11.2674 74.5084 11.778 74.3592C12.3155 74.2021 12.8 73.9633 13.2314 73.6428C13.6602 73.3133 14.0111 72.9336 14.2842 72.5037C14.5483 72.0765 14.725 71.6165 14.8143 71.1236C14.901 70.6218 14.8698 70.1156 14.7206 69.605C14.5609 69.0585 14.2836 68.5755 13.8888 68.1561C13.485 67.7393 12.9431 67.3823 12.2631 67.0851L10.664 67.5524L11.2805 69.6622L10.5549 69.8742L9.70271 66.9582L14.3926 65.5877L14.6282 66.394L13.2441 66.7984Z" fill="#1A312E"/>
<path d="M5.77728 61.4627L13.8963 61.3394L13.911 62.3053L3.97216 62.4563L3.96068 61.7003L12.1338 54.9955L3.87477 55.1209L3.8601 54.155L13.785 54.0043L13.7977 54.8442L5.77728 61.4627Z" fill="#1A312E"/>
<path d="M7.80862 42.744C7.43539 42.9435 7.09864 43.2523 6.7984 43.6704C6.5003 44.0795 6.28361 44.5701 6.14834 45.1423C5.94437 46.0052 5.95971 46.6706 6.19437 47.1385C6.41995 47.6042 6.80977 47.9025 7.36383 48.0335C7.65449 48.1022 7.907 48.1092 8.12136 48.0543C8.32878 47.9883 8.52639 47.8624 8.71416 47.6766C8.90408 47.4817 9.08873 47.2281 9.26808 46.9156C9.44959 46.5941 9.64505 46.2135 9.85446 45.7739C10.0858 45.2819 10.318 44.8477 10.5508 44.4711C10.7746 44.0925 11.0253 43.7825 11.3029 43.5412C11.5715 43.2978 11.8739 43.1343 12.2101 43.0508C12.5373 42.9651 12.9188 42.9737 13.3548 43.0768C13.7999 43.182 14.1655 43.3595 14.4517 43.6094C14.7379 43.8593 14.9535 44.1644 15.0985 44.5248C15.2435 44.8851 15.32 45.2916 15.3281 45.7443C15.3271 46.1948 15.2675 46.6699 15.1494 47.1694C14.7909 48.6863 14.0171 49.87 12.8282 50.7207L12.1611 50.0739C12.6173 49.8077 13.0479 49.4059 13.453 48.8687C13.849 48.3294 14.134 47.6918 14.3079 46.9561C14.4904 46.1841 14.497 45.5478 14.3276 45.0474C14.149 44.5449 13.7782 44.227 13.2151 44.0939C12.9153 44.0231 12.6505 44.0276 12.4206 44.1075C12.1838 44.1762 11.9638 44.316 11.7604 44.5269C11.5481 44.7356 11.3434 45.0133 11.1463 45.36C10.9515 45.6975 10.7426 46.0941 10.5198 46.5498C10.2815 47.0305 10.0537 47.4466 9.83633 47.798C9.61899 48.1494 9.38381 48.4343 9.1308 48.6526C8.87994 48.8618 8.6067 49.0035 8.31109 49.0774C8.00854 49.1402 7.66198 49.1254 7.27141 49.0331C6.82634 48.9279 6.45055 48.7527 6.14405 48.5076C5.83061 48.2513 5.59578 47.9464 5.43956 47.593C5.2764 47.2284 5.18517 46.8232 5.16586 46.3775C5.13961 45.9205 5.18661 45.4377 5.30685 44.929C5.45714 44.2932 5.69125 43.7492 6.00917 43.2968C6.32015 42.8333 6.70107 42.439 7.15193 42.114L7.80862 42.744Z" fill="#1A312E"/>
<path d="M21.6102 27.37C22.7811 27.37 23.7302 26.4208 23.7302 25.25C23.7302 24.0792 22.7811 23.13 21.6102 23.13C20.4394 23.13 19.4902 24.0792 19.4902 25.25C19.4902 26.4208 20.4394 27.37 21.6102 27.37Z" fill="#1A312E"/>
</svg>
