<svg width="172" height="172" viewBox="0 0 172 172" fill="none" xmlns="http://www.w3.org/2000/svg">
<path d="M109.491 137.312C109.394 137.121 109.342 136.924 109.336 136.723C109.332 136.526 109.365 136.335 109.433 136.15C109.504 135.969 109.609 135.802 109.747 135.647C109.888 135.498 110.057 135.373 110.253 135.273L112.651 134.057L115.237 139.154L112.789 140.397C112.612 140.486 112.432 140.529 112.25 140.526C112.067 140.522 111.894 140.483 111.73 140.41C111.569 140.341 111.422 140.241 111.289 140.11C111.154 139.986 111.047 139.845 110.966 139.687C110.835 139.429 110.78 139.159 110.8 138.878C110.822 138.602 110.921 138.353 111.098 138.131C110.762 138.193 110.451 138.149 110.164 138C109.873 137.853 109.649 137.623 109.491 137.312ZM110.037 137.143C110.1 137.268 110.182 137.377 110.284 137.47C110.388 137.567 110.502 137.639 110.627 137.684C110.75 137.736 110.88 137.76 111.016 137.757C111.151 137.761 111.28 137.731 111.405 137.668L113.358 136.677L112.378 134.746L110.475 135.711C110.346 135.777 110.237 135.865 110.149 135.976C110.061 136.087 109.998 136.206 109.96 136.334C109.925 136.466 109.913 136.602 109.923 136.741C109.936 136.885 109.974 137.019 110.037 137.143ZM114.52 138.968L113.565 137.087L111.813 137.975C111.689 138.039 111.587 138.123 111.509 138.229C111.425 138.338 111.367 138.455 111.334 138.58C111.297 138.707 111.284 138.837 111.297 138.969C111.312 139.105 111.351 139.236 111.415 139.36C111.48 139.49 111.564 139.601 111.665 139.694C111.762 139.789 111.869 139.858 111.987 139.901C112.102 139.951 112.225 139.973 112.354 139.967C112.482 139.969 112.605 139.939 112.725 139.878L114.52 138.968Z" fill="#19312E"/>
<path d="M104.049 138.469L103.869 138.003L107.45 136.616L109.514 141.947L106.001 143.308L105.821 142.842L108.816 141.682L108.072 139.76L105.459 140.772L105.288 140.329L107.9 139.317L107.112 137.282L104.049 138.469Z" fill="#19312E"/>
<path d="M100.494 143.865C100.698 143.998 100.947 144.081 101.241 144.115C101.53 144.151 101.837 144.123 102.163 144.032C102.654 143.894 102.984 143.701 103.154 143.452C103.325 143.209 103.367 142.93 103.278 142.614C103.231 142.449 103.165 142.32 103.077 142.228C102.986 142.142 102.868 142.077 102.722 142.035C102.571 141.994 102.392 141.971 102.185 141.968C101.972 141.967 101.727 141.974 101.447 141.992C101.135 142.012 100.852 142.017 100.598 142.005C100.345 141.998 100.119 141.958 99.9203 141.886C99.723 141.818 99.5564 141.712 99.4206 141.566C99.2863 141.426 99.1843 141.231 99.1146 140.983C99.0434 140.73 99.0307 140.497 99.0766 140.283C99.1225 140.069 99.2158 139.876 99.3567 139.702C99.4975 139.529 99.6806 139.377 99.906 139.247C100.133 139.122 100.388 139.019 100.673 138.939C101.535 138.697 102.347 138.756 103.106 139.117L102.967 139.633C102.706 139.477 102.383 139.373 102 139.319C101.619 139.27 101.218 139.304 100.8 139.422C100.361 139.546 100.039 139.72 99.8345 139.944C99.6315 140.174 99.575 140.449 99.6651 140.77C99.713 140.94 99.7892 141.072 99.8934 141.166C99.994 141.266 100.126 141.337 100.288 141.381C100.453 141.429 100.649 141.455 100.879 141.457C101.103 141.461 101.36 141.456 101.652 141.441C101.96 141.427 102.233 141.425 102.47 141.436C102.707 141.448 102.916 141.487 103.097 141.553C103.272 141.621 103.419 141.719 103.539 141.847C103.655 141.982 103.744 142.16 103.806 142.382C103.878 142.635 103.894 142.873 103.857 143.096C103.815 143.325 103.727 143.528 103.593 143.705C103.455 143.889 103.277 144.048 103.058 144.182C102.835 144.322 102.579 144.433 102.29 144.514C101.928 144.616 101.589 144.65 101.273 144.616C100.953 144.589 100.649 144.508 100.36 144.371L100.494 143.865Z" fill="#19312E"/>
<path d="M97.2186 139.884L98.2393 145.508L95.9103 145.931C95.6674 145.975 95.436 145.962 95.2162 145.893C94.992 145.83 94.7906 145.728 94.6121 145.585C94.4345 145.448 94.287 145.282 94.1694 145.085C94.0466 144.889 93.9655 144.683 93.9262 144.466C93.884 144.234 93.8829 144.002 93.9228 143.771C93.9584 143.547 94.0327 143.339 94.1456 143.15C94.2584 142.96 94.4061 142.797 94.5886 142.66C94.7658 142.524 94.9758 142.435 95.2188 142.39L97.0486 142.058L96.672 139.983L97.2186 139.884ZM97.1378 142.55L95.3396 142.876C95.1759 142.906 95.0342 142.967 94.9147 143.059C94.7908 143.158 94.6918 143.274 94.6179 143.408C94.5448 143.546 94.4958 143.697 94.4708 143.86C94.4468 144.028 94.4501 144.196 94.4807 144.365C94.5124 144.54 94.5738 144.698 94.6649 144.839C94.7518 144.987 94.8585 145.11 94.9852 145.207C95.1067 145.305 95.2444 145.372 95.3985 145.41C95.5483 145.454 95.6997 145.462 95.8529 145.434L97.6036 145.116L97.1378 142.55Z" fill="#19312E"/>
<path d="M89.9754 140.88C90.3714 140.851 90.7414 140.904 91.0853 141.039C91.4242 141.181 91.7215 141.377 91.9771 141.627C92.233 141.882 92.4383 142.179 92.5928 142.517C92.7474 142.855 92.8383 143.206 92.8656 143.57C92.8941 143.95 92.8545 144.319 92.7468 144.677C92.6337 145.035 92.4668 145.357 92.246 145.643C92.0252 145.929 91.7574 146.162 91.4426 146.341C91.1281 146.526 90.7809 146.633 90.4009 146.662C90.0048 146.691 89.6371 146.633 89.2978 146.486C88.9535 146.345 88.6561 146.147 88.4054 145.891C88.1495 145.636 87.9442 145.339 87.7897 145C87.6355 144.668 87.545 144.322 87.5181 143.963C87.4896 143.583 87.5319 143.214 87.6449 142.856C87.7526 142.498 87.9169 142.176 88.1377 141.89C88.3535 141.61 88.6186 141.378 88.9331 141.193C89.2479 141.013 89.5954 140.909 89.9754 140.88ZM92.3036 143.612C92.2803 143.302 92.207 143.006 92.0836 142.725C91.9607 142.449 91.7971 142.205 91.5929 141.994C91.3891 141.789 91.1537 141.629 90.8868 141.515C90.6203 141.405 90.3291 141.363 90.0133 141.386C89.6922 141.41 89.4057 141.502 89.1539 141.661C88.902 141.819 88.6936 142.018 88.5285 142.257C88.3633 142.495 88.2432 142.76 88.1682 143.051C88.0878 143.342 88.0586 143.635 88.0807 143.929C88.104 144.24 88.1798 144.533 88.3081 144.808C88.4315 145.09 88.595 145.333 88.7988 145.538C89.0026 145.744 89.2378 145.901 89.5043 146.01C89.7713 146.125 90.06 146.17 90.3704 146.147C90.6915 146.123 90.978 146.032 91.2298 145.873C91.4821 145.719 91.6907 145.523 91.8558 145.285C92.021 145.046 92.1437 144.782 92.2241 144.49C92.2992 144.199 92.3257 143.907 92.3036 143.612Z" fill="#19312E"/>
<path d="M85.6193 141.136L85.4142 146.84L84.8591 146.82L84.9782 143.506L81.7129 146.715L81.0934 146.693L83.5169 144.267L81.17 140.976L81.7895 140.998L83.8747 143.949L85.0011 142.87L85.0642 141.116L85.6193 141.136Z" fill="#19312E"/>
<path d="M76.3803 140.874L76.4455 140.379L80.2529 140.881L79.5057 146.548L75.7702 146.055L75.8354 145.56L79.0202 145.98L79.2896 143.937L76.5119 143.571L76.574 143.1L79.3517 143.466L79.6369 141.303L76.3803 140.874Z" fill="#19312E"/>
<path d="M68.8838 138.575L69.3329 139.42C69.6151 139.248 69.9171 139.135 70.239 139.08C70.5595 139.03 70.8851 139.052 71.2159 139.144C71.4588 139.212 71.6761 139.312 71.8677 139.444C72.0594 139.576 72.2173 139.728 72.3413 139.902C72.4587 140.08 72.5387 140.273 72.581 140.48C72.622 140.692 72.6114 140.909 72.5491 141.131C72.4971 141.317 72.419 141.476 72.315 141.609C72.2096 141.747 72.0845 141.865 71.9398 141.964C71.7937 142.068 71.6349 142.157 71.4635 142.232C71.2921 142.306 71.1137 142.376 70.9283 142.441C71.0258 142.63 71.1071 142.798 71.172 142.944C71.2318 143.089 71.2789 143.22 71.3135 143.335C71.3414 143.454 71.3552 143.564 71.355 143.664C71.3548 143.765 71.341 143.864 71.3135 143.962C71.2657 144.133 71.188 144.281 71.0803 144.407C70.966 144.537 70.8316 144.638 70.6772 144.712C70.5227 144.786 70.3542 144.831 70.1714 144.846C69.9835 144.861 69.7913 144.84 69.5949 144.785C69.414 144.735 69.2532 144.662 69.1127 144.567C68.9721 144.472 68.8587 144.359 68.7724 144.229C68.6796 144.103 68.6184 143.963 68.5888 143.81C68.5593 143.657 68.5669 143.5 68.6118 143.34C68.6566 143.179 68.7315 143.042 68.8363 142.926C68.9359 142.809 69.0566 142.706 69.1985 142.618C69.3403 142.529 69.4987 142.451 69.6738 142.383C69.8475 142.32 70.0322 142.257 70.228 142.195L69.1366 140.151C68.9783 140.318 68.8388 140.508 68.7183 140.719C68.5912 140.934 68.4922 141.169 68.4213 141.422L67.9716 141.296C68.0665 140.977 68.195 140.687 68.3573 140.426C68.5144 140.163 68.7012 139.934 68.9177 139.738L68.186 138.38L68.8838 138.575ZM71.0422 139.556C70.7786 139.482 70.5205 139.468 70.2679 139.514C70.0086 139.564 69.7662 139.664 69.5407 139.812L70.7149 142.039C71.0423 141.924 71.3262 141.786 71.5664 141.625C71.8052 141.469 71.9637 141.251 72.0418 140.972C72.0895 140.802 72.096 140.639 72.0613 140.485C72.0199 140.334 71.9529 140.195 71.86 140.069C71.7606 139.946 71.6398 139.84 71.4978 139.75C71.3543 139.665 71.2025 139.6 71.0422 139.556ZM70.8207 143.841C70.8381 143.779 70.8477 143.715 70.8495 143.648C70.8462 143.581 70.8329 143.499 70.8095 143.403C70.7795 143.311 70.7384 143.199 70.6861 143.068C70.6272 142.94 70.5482 142.784 70.4491 142.6C70.2703 142.661 70.1066 142.719 69.9579 142.772C69.8027 142.829 69.6688 142.889 69.5563 142.952C69.4373 143.019 69.3414 143.092 69.2689 143.172C69.1897 143.256 69.1349 143.352 69.1045 143.461C69.0481 143.662 69.0768 143.849 69.1905 144.02C69.3042 144.191 69.4773 144.309 69.7099 144.374C69.8391 144.411 69.9638 144.423 70.0839 144.412C70.204 144.401 70.3156 144.371 70.4185 144.322C70.5163 144.271 70.6015 144.206 70.674 144.126C70.7414 144.045 70.7903 143.95 70.8207 143.841Z" fill="#19312E"/>
<path d="M64.8672 137.153L62.5822 142.393L62.073 142.17L64.1585 137.388L61.1254 136.066L61.325 135.608L64.8672 137.153Z" fill="#19312E"/>
<path d="M58.0664 134.398C57.7533 134.221 57.4609 134.133 57.1893 134.134C56.9103 134.136 56.656 134.199 56.4263 134.322C56.1893 134.448 55.9775 134.621 55.791 134.842C55.5997 135.061 55.4329 135.296 55.2904 135.549L53.8738 138.059L53.383 137.782L54.7996 135.272C54.9896 134.935 55.2077 134.636 55.4539 134.375C55.6976 134.118 55.9682 133.922 56.2657 133.788C56.5586 133.651 56.8765 133.59 57.2194 133.605C57.5623 133.62 57.9254 133.736 58.3087 133.952C58.706 134.176 58.9983 134.434 59.1856 134.724C59.3703 135.019 59.4785 135.33 59.5101 135.656C59.5418 135.982 59.5083 136.315 59.4096 136.653C59.3109 136.992 59.1718 137.32 58.9924 137.638L57.5758 140.148L57.092 139.875L58.5086 137.365C58.6564 137.103 58.7744 136.834 58.8628 136.557C58.9513 136.281 58.9888 136.012 58.9754 135.752C58.9574 135.489 58.8785 135.241 58.7388 135.008C58.5991 134.775 58.3749 134.572 58.0664 134.398Z" fill="#19312E"/>
<path d="M51.3115 136.451L51.25 133.329L48.2686 134.256L47.7658 133.894L51.2439 132.829L51.1619 129.295L51.6647 129.658L51.721 132.676L54.6031 131.777L55.1124 132.145L51.7336 133.182L51.8208 136.818L51.3115 136.451Z" fill="#19312E"/>
<path d="M48.234 127.404C47.9668 127.164 47.7006 127.014 47.4354 126.956C47.1625 126.898 46.9006 126.904 46.6496 126.974C46.3911 127.044 46.1466 127.167 45.9163 127.342C45.682 127.514 45.4679 127.708 45.2738 127.923L43.3442 130.064L42.9256 129.687L44.8552 127.546C45.1139 127.259 45.3919 127.014 45.6893 126.813C45.983 126.615 46.2897 126.483 46.6093 126.417C46.9249 126.347 47.2485 126.357 47.58 126.446C47.9114 126.536 48.2406 126.728 48.5676 127.022C48.9065 127.328 49.1356 127.643 49.2551 127.967C49.371 128.295 49.4088 128.622 49.3687 128.947C49.3286 129.272 49.2235 129.59 49.0533 129.899C48.8831 130.208 48.6759 130.498 48.4315 130.769L46.5019 132.91L46.0893 132.538L48.0189 130.397C48.2201 130.174 48.394 129.937 48.5406 129.686C48.6872 129.435 48.7823 129.181 48.826 128.924C48.8656 128.664 48.8427 128.405 48.7571 128.147C48.6715 127.889 48.4971 127.642 48.234 127.404Z" fill="#19312E"/>
<path d="M45.4378 124.127L41.1679 127.928L39.5675 126.13C39.4033 125.945 39.2917 125.739 39.2328 125.511C39.1698 125.287 39.1525 125.062 39.1809 124.835C39.2052 124.613 39.2708 124.4 39.3777 124.197C39.481 123.99 39.6148 123.813 39.7792 123.667C39.9355 123.528 40.1073 123.418 40.2945 123.338C40.474 123.257 40.6594 123.207 40.8506 123.188C41.0378 123.172 41.2233 123.186 41.4069 123.231C41.5866 123.28 41.7547 123.364 41.9112 123.483L42.6223 120.964L43.0452 121.439L42.3688 123.852L43.4928 125.115L45.0685 123.712L45.4378 124.127ZM43.1199 125.447L41.8728 124.045C41.7622 123.921 41.6362 123.832 41.4949 123.778C41.346 123.724 41.1933 123.702 41.0368 123.712C40.8804 123.722 40.7262 123.758 40.5742 123.822C40.4223 123.885 40.2822 123.974 40.1539 124.088C40.0256 124.202 39.9247 124.335 39.8512 124.487C39.7702 124.638 39.7213 124.793 39.7044 124.951C39.684 125.106 39.6959 125.261 39.7402 125.415C39.7808 125.566 39.8529 125.699 39.9564 125.816L41.1714 127.181L43.1199 125.447Z" fill="#19312E"/>
<path d="M37.0593 123.136L38.4342 119.807L34.8397 120.102L34.4785 119.608L38.6885 119.282L40.4041 118.027L40.732 118.475L39.0035 119.739L37.4205 123.63L37.0593 123.136Z" fill="#19312E"/>
<path d="M32.9505 115.157L37.9049 112.322L38.1808 112.804L33.2264 115.639L32.9505 115.157Z" fill="#19312E"/>
<path d="M31.8113 112.966L36.0387 110.982L36.2746 111.485L31.0998 113.913L30.9151 113.52L33.6153 108.073L29.3151 110.091L29.0791 109.588L34.2467 107.163L34.4519 107.6L31.8113 112.966Z" fill="#19312E"/>
<path d="M27.3045 103.344L27.9743 105.268L32.9012 103.552L33.0865 104.084L28.1596 105.8L28.8294 107.724L28.358 107.888L26.8331 103.508L27.3045 103.344Z" fill="#19312E"/>
<path d="M30.5643 97.1113L31.0488 96.9909L31.9754 100.718L26.4281 102.097L25.5189 98.4405L26.0034 98.32L26.7785 101.437L28.7786 100.94L28.1026 98.2212L28.5636 98.1065L29.2396 100.826L31.3569 100.299L30.5643 97.1113Z" fill="#19312E"/>
<path d="M30.7433 95.47L25.0846 96.279L24.7439 93.896C24.709 93.6516 24.7298 93.4182 24.8065 93.1958C24.8778 92.9741 24.9879 92.7767 25.1366 92.6037C25.2801 92.4313 25.4523 92.2901 25.6535 92.1801C25.8539 92.0647 26.063 91.9914 26.2808 91.9602C26.488 91.9306 26.6918 91.934 26.8922 91.9704C27.0866 92.0023 27.2687 92.063 27.4388 92.1525C27.6035 92.2429 27.75 92.3575 27.8783 92.4964C28.0013 92.636 28.095 92.7988 28.1596 92.9848L30.1439 91.2778L30.234 91.9075L28.3372 93.5449L28.5765 95.2186L30.6646 94.9201L30.7433 95.47ZM28.0824 95.2893L27.8169 93.4323C27.7934 93.2676 27.7376 93.1237 27.6495 93.0008C27.5554 92.8733 27.4404 92.7704 27.3045 92.6922C27.1686 92.6141 27.0198 92.5594 26.8581 92.5283C26.6965 92.4972 26.5306 92.4938 26.3606 92.5181C26.1905 92.5424 26.033 92.5975 25.8881 92.6833C25.737 92.7645 25.6107 92.8666 25.509 92.9896C25.4065 93.1073 25.331 93.2428 25.2824 93.3961C25.2331 93.5441 25.2195 93.6952 25.2415 93.8493L25.5001 95.6584L28.0824 95.2893Z" fill="#19312E"/>
<path d="M30.0386 89.6514L24.3434 90.036L24.306 89.4818L30.0012 89.0971L30.0386 89.6514Z" fill="#19312E"/>
<path d="M29.9285 85.1091C29.923 85.5062 29.8374 85.8701 29.6718 86.2006C29.5009 86.5256 29.2796 86.8044 29.008 87.0368C28.731 87.2691 28.4172 87.4473 28.0666 87.5713C27.7159 87.6952 27.3582 87.7547 26.9932 87.7496C26.6122 87.7443 26.2482 87.6722 25.9012 87.5332C25.5543 87.3888 25.2483 87.194 24.9833 86.9487C24.7184 86.7035 24.5103 86.4161 24.3592 86.0866C24.2028 85.757 24.1272 85.4017 24.1325 85.0206C24.138 84.6235 24.2289 84.2624 24.4051 83.9374C24.5761 83.607 24.8001 83.3283 25.077 83.1013C25.354 82.869 25.6678 82.6908 26.0184 82.5669C26.3637 82.4428 26.7161 82.3833 27.0757 82.3883C27.4567 82.3936 27.8207 82.4684 28.1676 82.6128C28.5146 82.7518 28.8206 82.9439 29.0855 83.1891C29.3452 83.4289 29.5533 83.7136 29.7098 84.0432C29.8609 84.3728 29.9338 84.7281 29.9285 85.1091ZM27.001 87.1861C27.3123 87.1904 27.6136 87.1436 27.9048 87.0456C28.1906 86.9476 28.4476 86.8063 28.6756 86.6215C28.8982 86.4368 29.0784 86.2165 29.2162 85.9608C29.3485 85.7049 29.4169 85.4187 29.4213 85.1021C29.4258 84.7801 29.3601 84.4866 29.2242 84.2217C29.0883 83.9568 28.9089 83.7315 28.6861 83.5459C28.4632 83.3603 28.2102 83.2173 27.9271 83.1167C27.6441 83.0108 27.355 82.9558 27.0598 82.9517C26.7485 82.9474 26.4499 82.9969 26.164 83.1003C25.8728 83.1982 25.6158 83.3396 25.3932 83.5244C25.1705 83.7092 24.993 83.9295 24.8607 84.1853C24.7229 84.441 24.6519 84.7245 24.6476 85.0358C24.6431 85.3578 24.7088 85.6513 24.8447 85.9162C24.9752 86.181 25.1519 86.4062 25.3748 86.5918C25.5977 86.7774 25.8506 86.9232 26.1336 87.0291C26.4167 87.1297 26.7059 87.182 27.001 87.1861Z" fill="#19312E"/>
<path d="M30.0415 80.86L24.3691 80.1542L24.6663 77.7654C24.6968 77.5204 24.7782 77.3006 24.9106 77.1062C25.0376 76.911 25.1956 76.7495 25.3846 76.6216C25.5683 76.493 25.7716 76.402 25.9946 76.3486C26.2183 76.2899 26.4393 76.2741 26.6577 76.3013C26.8654 76.3271 27.0612 76.384 27.2449 76.4717C27.4241 76.5535 27.5839 76.6599 27.7245 76.791C27.8597 76.9214 27.9709 77.0705 28.0582 77.2382C28.1402 77.4052 28.1879 77.587 28.2014 77.7833L30.5644 76.6576L30.4859 77.2887L28.2257 78.3705L28.0169 80.0483L30.1101 80.3087L30.0415 80.86ZM27.5216 79.9866L27.7532 78.1251C27.7737 77.96 27.7577 77.8066 27.705 77.6648C27.6476 77.517 27.5637 77.3876 27.4531 77.2765C27.3425 77.1654 27.2133 77.0736 27.0655 77.0011C26.9177 76.9286 26.7585 76.8818 26.5881 76.8606C26.4177 76.8393 26.2512 76.8511 26.0888 76.8958C25.9217 76.9345 25.773 76.9998 25.6425 77.0918C25.5128 77.1784 25.4043 77.2893 25.3172 77.4245C25.2307 77.5544 25.1779 77.6965 25.1587 77.851L24.933 79.6646L27.5216 79.9866Z" fill="#19312E"/>
<path d="M31.2967 72.8567L25.7922 71.3157L26.313 69.455C26.436 69.0157 26.6162 68.6509 26.8535 68.3606C27.0908 68.0703 27.3639 67.8513 27.6728 67.7037C27.9831 67.5509 28.3214 67.4673 28.6878 67.4528C29.049 67.4369 29.4182 67.4817 29.7955 67.5873C30.2142 67.7045 30.5767 67.8729 30.8831 68.0924C31.1843 68.3105 31.4246 68.5673 31.6038 68.8627C31.7779 69.1567 31.8866 69.4853 31.9298 69.8485C31.9679 70.2103 31.9305 70.5928 31.8176 70.996L31.2967 72.8567ZM29.6436 68.13C29.3128 68.0374 28.9974 67.9993 28.6974 68.0156C28.3923 68.0305 28.1136 68.1002 27.8614 68.2247C27.6106 68.344 27.3948 68.5177 27.2139 68.7457C27.0278 68.9723 26.8878 69.2536 26.7937 69.5896L26.4226 70.9153L30.9658 72.1871L31.3369 70.8614C31.4324 70.5203 31.4595 70.2046 31.4181 69.9143C31.373 69.6174 31.2743 69.3529 31.1219 69.1208C30.9644 68.8871 30.7609 68.6881 30.5116 68.5235C30.2585 68.3523 29.9692 68.2212 29.6436 68.13Z" fill="#19312E"/>
<path d="M33.9825 63.1955L34.447 63.3782L33.0411 66.952L27.7217 64.8595L29.101 61.3531L29.5655 61.5359L28.3896 64.5252L30.3076 65.2797L31.3332 62.6725L31.7753 62.8463L30.7496 65.4536L32.78 66.2523L33.9825 63.1955Z" fill="#19312E"/>
<path d="M32.4906 56.8136C32.2547 56.8737 32.0242 56.9999 31.7991 57.1921C31.5764 57.3796 31.388 57.6238 31.2339 57.9247C31.0014 58.3785 30.9185 58.7522 30.9852 59.0457C31.0472 59.3367 31.2239 59.5569 31.5153 59.7062C31.6682 59.7845 31.8082 59.8231 31.9354 59.8219C32.0603 59.8135 32.188 59.7704 32.3184 59.6924C32.4512 59.6097 32.5892 59.4934 32.7323 59.3436C32.8778 59.189 33.0392 59.0034 33.2166 58.7866C33.4134 58.5437 33.6027 58.3331 33.7845 58.1549C33.9615 57.9742 34.1441 57.8355 34.3322 57.739C34.5157 57.6399 34.707 57.5902 34.9062 57.5897C35.1007 57.5868 35.3126 57.6441 35.5419 57.7616C35.7759 57.8815 35.9557 58.0309 36.0812 58.2097C36.2067 58.3886 36.2851 58.5886 36.3166 58.8098C36.348 59.0309 36.3349 59.2684 36.2772 59.5223C36.2147 59.7737 36.1162 60.0308 35.9816 60.2936C35.5729 61.0913 34.9782 61.646 34.1974 61.9576L33.9138 61.5048C34.2051 61.4188 34.5007 61.2537 34.8008 61.0093C35.096 60.7626 35.3428 60.4457 35.541 60.0588C35.749 59.6528 35.8401 59.2984 35.8142 58.9957C35.7836 58.6905 35.6202 58.4621 35.324 58.3104C35.1664 58.2296 35.0179 58.1957 34.8786 58.2088C34.7369 58.2146 34.5948 58.2624 34.4523 58.3522C34.305 58.4396 34.1525 58.5666 33.9949 58.733C33.8397 58.8948 33.6685 59.0875 33.4815 59.3113C33.2824 59.547 33.098 59.7481 32.9283 59.9144C32.7587 60.0808 32.5882 60.2076 32.4169 60.2947C32.2481 60.3771 32.076 60.4186 31.9008 60.4193C31.7232 60.4128 31.5317 60.3569 31.3263 60.2516C31.0923 60.1317 30.9065 59.9823 30.769 59.8033C30.6292 59.6171 30.54 59.4146 30.5013 59.1958C30.4603 58.9697 30.465 58.7309 30.5155 58.4794C30.5636 58.2206 30.6562 57.9575 30.7933 57.69C30.9646 57.3556 31.1701 57.0839 31.4097 56.875C31.6471 56.6589 31.914 56.4911 32.2104 56.3716L32.4906 56.8136Z" fill="#19312E"/>
<path d="M37.6834 57.093L32.7972 54.1421L33.0844 53.6666L37.9706 56.6175L37.6834 57.093Z" fill="#19312E"/>
<path d="M40.4934 51.3813C40.6584 52.1502 40.5421 52.8147 40.1443 53.3749C39.9206 53.69 39.6461 53.9329 39.3209 54.1035C38.9988 54.2698 38.6563 54.3721 38.2932 54.4106C37.9333 54.4447 37.5745 54.417 37.2167 54.3276C36.8546 54.235 36.5247 54.0831 36.2271 53.8718C35.9164 53.6512 35.6561 53.3874 35.4462 53.0804C35.2394 52.769 35.0956 52.4431 35.0147 52.1026C34.9326 51.7547 34.9213 51.4044 34.9808 51.0517C35.0391 50.6915 35.1785 50.3561 35.3991 50.0453C35.5607 49.8178 35.733 49.6307 35.916 49.4842C36.0978 49.3302 36.2859 49.2136 36.4803 49.1344C36.6735 49.0478 36.8724 48.9948 37.077 48.9755C37.2772 48.9531 37.4781 48.9575 37.6797 48.9888L37.6644 49.511C37.2668 49.4591 36.9132 49.5076 36.6035 49.6563C36.2938 49.8051 36.0287 50.0348 35.8081 50.3455C35.6247 50.6038 35.5132 50.8767 35.4735 51.1645C35.4368 51.4479 35.4576 51.7292 35.5358 52.0085C35.6127 52.2803 35.7413 52.5395 35.9217 52.7861C36.0977 53.0295 36.3105 53.2398 36.5599 53.4169C36.8225 53.6034 37.103 53.7367 37.4015 53.817C37.7031 53.8929 37.9995 53.9157 38.2908 53.8856C38.5777 53.8523 38.8483 53.7679 39.1025 53.6324C39.3598 53.4926 39.577 53.2979 39.7541 53.0484C39.9436 52.7815 40.0626 52.4841 40.1109 52.1564C40.1549 51.8256 40.1226 51.4538 40.0141 51.0411L39.2329 50.4865L38.5012 51.5171L38.1467 51.2654L39.1581 49.8409L41.4492 51.4675L41.1695 51.8614L40.4934 51.3813Z" fill="#19312E"/>
<path d="M39.3058 46.6971L42.7745 49.8232L42.4026 50.2359L38.1564 46.4091L38.4475 46.0861L44.5152 46.4607L40.9867 43.2806L41.3586 42.868L45.5988 46.6894L45.2754 47.0483L39.3058 46.6971Z" fill="#19312E"/>
<path d="M46.3447 39.6727C46.1031 39.6435 45.8426 39.6777 45.5631 39.7755C45.2877 39.8697 45.0238 40.0292 44.7712 40.2541C44.3903 40.5931 44.1779 40.9114 44.1339 41.2092C44.0864 41.503 44.1715 41.7722 44.3892 42.0167C44.5034 42.145 44.62 42.2316 44.739 42.2766C44.8585 42.3139 44.9931 42.3199 45.1429 42.2944C45.2966 42.2653 45.4673 42.2068 45.6549 42.1189C45.8465 42.0274 46.0642 41.9127 46.3079 41.7748C46.5792 41.6195 46.8319 41.4917 47.0658 41.3912C47.2962 41.2868 47.5166 41.2236 47.727 41.2016C47.9338 41.1756 48.1301 41.1984 48.316 41.2701C48.4984 41.3377 48.6752 41.4678 48.8465 41.6602C49.0213 41.8567 49.1349 42.061 49.1872 42.2731C49.2395 42.4852 49.2403 42.7001 49.1896 42.9176C49.1389 43.1352 49.0408 43.3519 48.8952 43.5677C48.746 43.7795 48.5611 43.9835 48.3406 44.1798C47.6711 44.7757 46.916 45.0777 46.0753 45.0858L45.9747 44.5611C46.2774 44.5863 46.6127 44.5393 46.9808 44.42C47.3454 44.2968 47.69 44.0906 48.0148 43.8016C48.3556 43.4983 48.5687 43.2008 48.654 42.9093C48.7359 42.6137 48.6662 42.3416 48.4449 42.093C48.3272 41.9607 48.201 41.8755 48.0663 41.8372C47.9321 41.7914 47.7824 41.7846 47.617 41.8168C47.4481 41.845 47.2601 41.9082 47.0529 42.0063C46.8497 42.101 46.6204 42.2188 46.3651 42.3598C46.0942 42.5075 45.8496 42.6282 45.6312 42.722C45.4129 42.8157 45.2081 42.8722 45.0169 42.8915C44.8297 42.9072 44.6543 42.8837 44.4906 42.821C44.3275 42.7507 44.1691 42.6293 44.0157 42.4569C43.8409 42.2604 43.7217 42.0539 43.6583 41.8373C43.5953 41.6132 43.5853 41.3921 43.6284 41.1741C43.672 40.9485 43.7628 40.7276 43.9008 40.5113C44.0393 40.2875 44.2208 40.0757 44.4453 39.8758C44.726 39.6261 45.0158 39.4471 45.3148 39.3391C45.6143 39.2234 45.9238 39.1635 46.2434 39.1593L46.3447 39.6727Z" fill="#19312E"/>
<path d="M52.7535 40.5488L52.2951 39.9067L52.6751 39.6354L53.1335 40.2775L52.7535 40.5488Z" fill="#19312E"/>
<path d="M59.4812 34.6548C59.5857 34.8424 59.6448 35.0368 59.6586 35.238C59.6697 35.4345 59.6446 35.6267 59.5833 35.8144C59.5194 35.9975 59.4213 36.1688 59.289 36.3285C59.1542 36.4834 58.9906 36.6145 58.7983 36.7215L56.449 38.0298L53.6679 33.0359L56.0664 31.7001C56.2399 31.6035 56.4179 31.5535 56.6003 31.5502C56.7828 31.5469 56.9572 31.5788 57.1236 31.6459C57.2873 31.7082 57.4381 31.8024 57.5759 31.9285C57.7157 32.0472 57.8287 32.1839 57.9149 32.3387C58.0559 32.5919 58.1219 32.8592 58.1128 33.1408C58.1011 33.4176 58.0114 33.6703 57.8438 33.8988C58.1768 33.8239 58.4894 33.8556 58.7815 33.994C59.0782 34.1298 59.3115 34.35 59.4812 34.6548ZM58.9419 34.8446C58.874 34.7227 58.7876 34.6172 58.6827 34.5282C58.5752 34.4345 58.4581 34.3676 58.3314 34.3276C58.2067 34.2803 58.0761 34.2609 57.9395 34.2693C57.805 34.2705 57.6768 34.3051 57.5549 34.373L55.6417 35.4384L56.6954 37.3305L58.5594 36.2925C58.686 36.222 58.7912 36.1296 58.875 36.0153C58.9588 35.9011 59.0171 35.7795 59.0498 35.6507C59.0799 35.5172 59.0871 35.3812 59.0713 35.2425C59.0529 35.0992 59.0097 34.9665 58.9419 34.8446ZM54.3922 33.1946L55.4185 35.0375L57.1347 34.0817C57.2566 34.0138 57.3548 33.9253 57.4292 33.8163C57.5084 33.7047 57.5619 33.5858 57.5899 33.4596C57.6227 33.3308 57.6301 33.2007 57.6122 33.0693C57.5918 32.9333 57.5476 32.8043 57.4797 32.6824C57.4092 32.5558 57.3215 32.448 57.2166 32.3589C57.1164 32.2673 57.0066 32.2025 56.8872 32.1645C56.7698 32.1193 56.6465 32.102 56.5173 32.1125C56.3901 32.1158 56.2678 32.1501 56.1506 32.2154L54.3922 33.1946Z" fill="#19312E"/>
<path d="M64.891 33.2794L65.089 33.7377L61.5638 35.2611L59.2962 30.014L62.7549 28.5192L62.9529 28.9774L60.0041 30.2518L60.8218 32.1437L63.3936 31.0323L63.582 31.4683L61.0102 32.5797L61.8757 34.5825L64.891 33.2794Z" fill="#19312E"/>
<path d="M68.4597 27.6806C68.2509 27.5556 67.9989 27.4809 67.7039 27.4566C67.414 27.4306 67.1079 27.4689 66.7857 27.5715C66.2999 27.7263 65.9763 27.9307 65.8151 28.1849C65.6522 28.4339 65.6204 28.7144 65.7197 29.0264C65.7719 29.19 65.8431 29.3166 65.9336 29.4061C66.0276 29.4888 66.1481 29.549 66.2953 29.5866C66.4476 29.6226 66.6273 29.6386 66.8344 29.6346C67.0467 29.629 67.2922 29.6127 67.5709 29.5859C67.882 29.5545 68.1648 29.5404 68.4194 29.5438C68.6723 29.5422 68.8993 29.5741 69.1005 29.6396C69.2999 29.7 69.47 29.8007 69.6107 29.9418C69.7498 30.0777 69.8584 30.2685 69.9366 30.5139C70.0164 30.7645 70.037 30.9974 69.9985 31.2124C69.96 31.4275 69.8733 31.6241 69.7385 31.8022C69.6037 31.9803 69.4259 32.1383 69.2051 32.2763C68.9826 32.4091 68.7308 32.5203 68.4495 32.6098C67.5954 32.8818 66.7828 32.8506 66.0115 32.516L66.1331 31.9957C66.3993 32.1418 66.7248 32.2353 67.1096 32.2761C67.4927 32.3118 67.8914 32.2637 68.3057 32.1318C68.7404 31.9933 69.0561 31.8083 69.2527 31.5767C69.4477 31.34 69.4947 31.0631 69.3937 30.746C69.3399 30.5772 69.2593 30.448 69.1519 30.3583C69.048 30.2618 68.9139 30.1947 68.7498 30.1568C68.584 30.1139 68.3865 30.0951 68.1573 30.1005C67.9332 30.1043 67.6758 30.1186 67.3852 30.1436C67.0776 30.1683 66.805 30.1791 66.5675 30.1759C66.3299 30.1727 66.1198 30.141 65.9373 30.0809C65.7599 30.0191 65.6092 29.9262 65.4853 29.8024C65.3648 29.6717 65.2695 29.4965 65.1995 29.2766C65.1197 29.026 65.0949 28.7888 65.125 28.5652C65.1587 28.3348 65.2395 28.1288 65.3676 27.9472C65.4991 27.7588 65.6719 27.5939 65.886 27.4525C66.1036 27.3044 66.3555 27.1847 66.6419 27.0935C66.9999 26.9795 67.3375 26.9339 67.6546 26.9569C67.9752 26.973 68.2823 27.0442 68.576 27.1704L68.4597 27.6806Z" fill="#19312E"/>
<path d="M71.8756 31.5398L70.6648 25.9534L72.9781 25.452C73.2193 25.3997 73.451 25.4044 73.6731 25.4661C73.8993 25.5214 74.104 25.6171 74.2872 25.7531C74.4694 25.8839 74.6225 26.0457 74.7467 26.2384C74.8761 26.4301 74.9641 26.6334 75.0107 26.8485C75.0607 27.0793 75.0697 27.3108 75.0376 27.5429C75.0097 27.7686 74.9425 27.9781 74.8361 28.1714C74.7297 28.3647 74.5877 28.5328 74.4099 28.6757C74.2374 28.8174 74.0306 28.9144 73.7893 28.9667L71.9717 29.3607L72.4185 31.4222L71.8756 31.5398ZM71.866 28.8729L73.6521 28.4857C73.8147 28.4505 73.9542 28.3846 74.0705 28.2879C74.191 28.1849 74.2859 28.0655 74.3553 27.9297C74.4236 27.7885 74.4675 27.6362 74.487 27.4728C74.5053 27.304 74.4963 27.1357 74.4599 26.9679C74.4224 26.7948 74.3557 26.639 74.2598 26.5005C74.1679 26.3556 74.0571 26.2369 73.9272 26.1442C73.8025 26.0504 73.6625 25.9874 73.5072 25.9551C73.3561 25.9165 73.2044 25.9137 73.0523 25.9466L71.3134 26.3235L71.866 28.8729Z" fill="#19312E"/>
<path d="M79.0754 30.2909C78.6805 30.3339 78.309 30.2933 77.9607 30.1692C77.6172 30.0392 77.3136 29.8536 77.0498 29.6123C76.7854 29.3658 76.5703 29.076 76.4045 28.7431C76.2388 28.4102 76.1361 28.0624 76.0966 27.6995C76.0554 27.3207 76.0827 26.9506 76.1783 26.5892C76.2793 26.2273 76.4354 25.8999 76.6464 25.607C76.8575 25.3141 77.1174 25.0725 77.4261 24.8824C77.7341 24.6869 78.0776 24.5686 78.4564 24.5273C78.8513 24.4844 79.2207 24.5306 79.5648 24.6659C79.9136 24.7953 80.2175 24.9836 80.4766 25.2308C80.741 25.4774 80.9561 25.7671 81.1219 26.1C81.2871 26.4276 81.3891 26.7701 81.428 27.1276C81.4692 27.5065 81.4393 27.8768 81.3383 28.2388C81.2427 28.6001 81.0893 28.9272 80.8782 29.2201C80.6719 29.5071 80.4147 29.7484 80.1066 29.9439C79.7979 30.134 79.4542 30.2497 79.0754 30.2909ZM76.6569 27.6386C76.6906 27.948 76.7738 28.2413 76.9065 28.5184C77.0386 28.7902 77.2103 29.028 77.4214 29.2318C77.632 29.4302 77.8726 29.5822 78.1432 29.6878C78.4133 29.788 78.7057 29.8209 79.0205 29.7867C79.3407 29.7518 79.6239 29.6508 79.8703 29.4837C80.1166 29.3165 80.3183 29.111 80.4754 28.8671C80.6324 28.6233 80.7436 28.3548 80.8088 28.0615C80.8795 27.7677 80.8988 27.474 80.8669 27.1806C80.8332 26.8711 80.7476 26.5807 80.6101 26.3096C80.4774 26.0325 80.3058 25.7947 80.0952 25.5962C79.8847 25.3978 79.6444 25.2484 79.3743 25.1483C79.1037 25.0427 78.8136 25.0068 78.5042 25.0405C78.184 25.0753 77.9007 25.1763 77.6544 25.3435C77.4074 25.5053 77.2054 25.7081 77.0484 25.952C76.8914 26.1958 76.7775 26.4647 76.7069 26.7585C76.6417 27.0517 76.625 27.3451 76.6569 27.6386Z" fill="#19312E"/>
<path d="M83.281 29.8869L83.2761 24.1788L83.8316 24.1783L83.8345 27.4953L86.9795 24.1675L87.5995 24.167L85.2668 26.6809L87.7332 29.8831L87.1133 29.8836L84.9209 27.0113L83.835 28.1313L83.8365 29.8864L83.281 29.8869Z" fill="#19312E"/>
<path d="M92.4027 29.7944L92.3556 30.2914L88.5324 29.9287L89.0722 24.2381L92.8232 24.5939L92.7761 25.0908L89.5781 24.7875L89.3834 26.8393L92.1727 27.1039L92.1278 27.5768L89.3386 27.3122L89.1326 29.4843L92.4027 29.7944Z" fill="#19312E"/>
<path d="M99.9824 31.795L99.503 30.9672C99.2272 31.1491 98.9295 31.2733 98.6098 31.3398C98.2913 31.401 97.9652 31.3914 97.6312 31.3109C97.386 31.2517 97.1652 31.1598 96.9689 31.0352C96.7726 30.9106 96.6093 30.7635 96.479 30.5941C96.3552 30.4207 96.2683 30.2313 96.2184 30.0261C96.1698 29.8156 96.1725 29.5981 96.2267 29.3738C96.2719 29.1859 96.3441 29.0239 96.4432 28.8877C96.5436 28.7463 96.6643 28.6235 96.8053 28.5195C96.9476 28.4103 97.103 28.3153 97.2716 28.2344C97.4402 28.1536 97.6159 28.0773 97.7989 28.0055C97.6945 27.8202 97.6072 27.6556 97.537 27.5117C97.472 27.369 97.4202 27.2406 97.3815 27.1263C97.3492 27.0081 97.3314 26.8989 97.3279 26.7987C97.3245 26.6985 97.3347 26.5988 97.3586 26.4997C97.4002 26.3275 97.4725 26.1765 97.5755 26.0468C97.6851 25.9131 97.8156 25.8066 97.9673 25.7272C98.1189 25.6478 98.2858 25.597 98.4679 25.5746C98.6552 25.5535 98.8479 25.5669 99.0462 25.6147C99.2288 25.6587 99.3921 25.7257 99.5361 25.8156C99.68 25.9056 99.7974 26.0139 99.8883 26.1407C99.9857 26.2636 100.052 26.401 100.087 26.5531C100.122 26.7051 100.12 26.862 100.081 27.0237C100.042 27.1855 99.9724 27.326 99.8719 27.4453C99.7766 27.5659 99.6596 27.6729 99.5211 27.7665C99.3826 27.8601 99.2271 27.9441 99.0546 28.0184C98.8833 28.0875 98.701 28.1567 98.5076 28.2261L99.6725 30.2296C99.8247 30.0565 99.9572 29.862 100.07 29.6463C100.189 29.4266 100.28 29.1889 100.341 28.9332L100.795 29.0427C100.712 29.365 100.594 29.6595 100.441 29.9263C100.294 30.1944 100.116 30.4303 99.9063 30.6338L100.687 31.9649L99.9824 31.795ZM97.7898 30.8936C98.0559 30.9578 98.3144 30.9621 98.5651 30.9067C98.8224 30.8472 99.061 30.7391 99.281 30.5824L98.0267 28.4C97.7036 28.5263 97.425 28.6745 97.1908 28.8444C96.9578 29.009 96.8074 29.2322 96.7394 29.514C96.6979 29.6862 96.6973 29.8489 96.7377 30.0022C96.7845 30.1515 96.8566 30.2876 96.9539 30.4105C97.0577 30.5294 97.1823 30.6312 97.3275 30.7159C97.4739 30.7954 97.6281 30.8546 97.7898 30.8936ZM97.8555 26.6029C97.8404 26.6656 97.8331 26.7301 97.8337 26.7964C97.8395 26.8641 97.8558 26.9453 97.8826 27.0401C97.9159 27.131 97.9611 27.2412 98.0181 27.371C98.0817 27.4967 98.1663 27.6496 98.2719 27.8297C98.4484 27.7618 98.6099 27.6986 98.7566 27.6401C98.9096 27.5777 99.0412 27.5128 99.1513 27.4455C99.2679 27.3742 99.361 27.2972 99.4306 27.2147C99.5067 27.1281 99.5579 27.03 99.5843 26.9205C99.6334 26.717 99.598 26.5318 99.4782 26.3648C99.3583 26.1979 99.181 26.0861 98.9462 26.0295C98.8157 25.998 98.6907 25.99 98.5711 26.0053C98.4514 26.0206 98.341 26.0547 98.2399 26.1076C98.1441 26.1618 98.0613 26.2302 97.9917 26.3128C97.9273 26.3967 97.8819 26.4934 97.8555 26.6029Z" fill="#19312E"/>
<path d="M104.041 33.0417L106.133 27.7223L106.65 27.9256L104.741 32.7805L107.82 33.9918L107.637 34.4564L104.041 33.0417Z" fill="#19312E"/>
<path d="M110.798 35.4531C111.118 35.6182 111.413 35.6954 111.684 35.6847C111.963 35.6716 112.215 35.5994 112.44 35.468C112.672 35.3343 112.877 35.1534 113.056 34.9253C113.239 34.6997 113.397 34.4582 113.53 34.2007L114.854 31.6403L115.354 31.8991L114.031 34.4595C113.853 34.8028 113.646 35.1097 113.41 35.3802C113.176 35.6459 112.912 35.8512 112.62 35.9961C112.332 36.1435 112.017 36.216 111.674 36.2138C111.33 36.2116 110.963 36.1095 110.572 35.9074C110.167 35.6979 109.866 35.4514 109.668 35.1678C109.472 34.8795 109.353 34.5731 109.309 34.2484C109.266 33.9237 109.287 33.5903 109.373 33.2482C109.459 32.9061 109.586 32.5729 109.754 32.2487L111.077 29.6883L111.571 29.9434L110.247 32.5038C110.109 32.7708 110.001 33.0442 109.923 33.324C109.845 33.6038 109.817 33.8735 109.84 34.1331C109.868 34.3951 109.956 34.64 110.104 34.8676C110.252 35.0953 110.483 35.2904 110.798 35.4531Z" fill="#19312E"/>
<path d="M117.717 33.2706L117.894 36.3878L120.839 35.3508L121.355 35.6945L117.919 36.8879L118.132 40.4159L117.616 40.0722L117.448 37.0578L114.601 38.0635L114.079 37.7153L117.417 36.5532L117.194 32.9225L117.717 33.2706Z" fill="#19312E"/>
<path d="M121.124 42.1843C121.4 42.4148 121.672 42.5543 121.939 42.6027C122.214 42.6504 122.475 42.6346 122.723 42.5552C122.979 42.475 123.219 42.343 123.442 42.1591C123.67 41.9786 123.877 41.7772 124.063 41.5547L125.91 39.3426L126.343 39.7039L124.495 41.916C124.247 42.2126 123.979 42.4672 123.689 42.6799C123.403 42.8885 123.102 43.0318 122.785 43.1098C122.472 43.1912 122.148 43.1936 121.814 43.1169C121.479 43.0403 121.143 42.8609 120.805 42.5787C120.455 42.2863 120.214 41.9802 120.082 41.6605C119.954 41.3367 119.904 41.0116 119.932 40.6852C119.96 40.3588 120.053 40.0379 120.211 39.7227C120.37 39.4074 120.566 39.1098 120.8 38.8296L122.648 36.6175L123.074 36.9737L121.226 39.1858C121.034 39.4164 120.869 39.6599 120.732 39.916C120.595 40.1722 120.509 40.4295 120.475 40.6878C120.445 40.9496 120.478 41.2077 120.573 41.4621C120.669 41.7165 120.852 41.9572 121.124 42.1843Z" fill="#19312E"/>
<path d="M123.857 45.1539L127.979 41.1937L129.646 42.9297C129.817 43.1077 129.937 43.3094 130.004 43.5347C130.076 43.7563 130.102 43.9808 130.082 44.2082C130.066 44.4318 130.009 44.6471 129.91 44.8539C129.814 45.0645 129.687 45.2461 129.529 45.3985C129.378 45.5436 129.21 45.6598 129.026 45.7472C128.85 45.8348 128.666 45.8918 128.476 45.9184C128.29 45.9412 128.104 45.9337 127.919 45.8958C127.737 45.8542 127.566 45.7768 127.405 45.6635L126.79 48.2078L126.35 47.7491L126.934 45.3124L125.763 44.0931L124.241 45.5545L123.857 45.1539ZM126.122 43.7473L127.422 45.1001C127.537 45.2201 127.667 45.3043 127.81 45.3527C127.961 45.4013 128.114 45.4176 128.27 45.4018C128.426 45.3859 128.579 45.3434 128.728 45.2743C128.878 45.2052 129.014 45.1111 129.138 44.9921C129.262 44.8731 129.358 44.7365 129.425 44.5822C129.501 44.4281 129.544 44.2714 129.554 44.1122C129.569 43.9569 129.551 43.8028 129.501 43.6499C129.455 43.5009 129.378 43.3703 129.27 43.2581L128.004 41.9402L126.122 43.7473Z" fill="#19312E"/>
<path d="M132.412 45.9531L131.153 49.3283L134.735 48.9093L135.113 49.3904L130.917 49.8619L129.245 51.1752L128.902 50.7385L130.586 49.4152L132.034 45.472L132.412 45.9531Z" fill="#19312E"/>
<path d="M132.348 55.5573L137.189 52.5335L137.483 53.0046L132.642 56.0285L132.348 55.5573Z" fill="#19312E"/>
<path d="M138.005 55.8342L133.858 57.9792L133.602 57.4857L138.68 54.86L138.88 55.2462L136.391 60.793L140.611 58.611L140.866 59.1045L135.795 61.7265L135.574 61.2974L138.005 55.8342Z" fill="#19312E"/>
<path d="M142.905 65.2987L142.162 63.4022L137.304 65.305L137.099 64.7803L141.956 62.8774L141.213 60.9809L141.678 60.7988L143.369 65.1167L142.905 65.2987Z" fill="#19312E"/>
<path d="M139.933 71.7933L139.453 71.9302L138.4 68.2372L143.897 66.6693L144.93 70.2926L144.45 70.4296L143.569 67.3404L141.587 67.9058L142.356 70.6L141.899 70.7303L141.13 68.0361L139.032 68.6345L139.933 71.7933Z" fill="#19312E"/>
<path d="M139.766 73.1044L145.391 72.0837L145.821 74.4522C145.865 74.6951 145.853 74.9292 145.784 75.1543C145.721 75.3785 145.619 75.5798 145.477 75.7584C145.34 75.9359 145.173 76.0835 144.976 76.2011C144.78 76.3239 144.574 76.405 144.357 76.4442C144.151 76.4816 143.948 76.4859 143.746 76.457C143.551 76.4325 143.366 76.3786 143.193 76.2955C143.025 76.2115 142.874 76.1024 142.741 75.9685C142.613 75.8335 142.513 75.6743 142.442 75.4909L140.523 77.2711L140.409 76.6453L142.243 74.9378L141.941 73.2743L139.866 73.6509L139.766 73.1044ZM142.432 73.1852L142.767 75.0309C142.797 75.1946 142.858 75.3362 142.951 75.4558C143.05 75.5797 143.168 75.6782 143.307 75.7512C143.446 75.8242 143.596 75.8732 143.759 75.8982C143.922 75.9232 144.088 75.9204 144.257 75.8897C144.426 75.8591 144.581 75.7982 144.723 75.707C144.871 75.6201 144.993 75.5134 145.09 75.3867C145.188 75.2652 145.258 75.127 145.301 74.972C145.345 74.8222 145.353 74.6707 145.325 74.5176L144.999 72.7194L142.432 73.1852Z" fill="#19312E"/>
<path d="M140.734 79.0539L146.411 78.4577L146.469 79.0101L140.792 79.6063L140.734 79.0539Z" fill="#19312E"/>
<path d="M141.035 83.744C141.026 83.3469 141.098 82.9802 141.252 82.6438C141.41 82.3126 141.621 82.0259 141.884 81.7836C142.152 81.5413 142.459 81.3517 142.805 81.2149C143.151 81.078 143.506 81.0054 143.871 80.9971C144.252 80.9883 144.619 81.047 144.971 81.1731C145.323 81.3046 145.635 81.488 145.909 81.7233C146.183 81.9586 146.402 82.2381 146.565 82.5618C146.733 82.8854 146.822 83.2377 146.831 83.6187C146.84 84.0158 146.762 84.38 146.598 84.7112C146.439 85.0477 146.226 85.3345 145.958 85.5715C145.689 85.8139 145.382 86.0035 145.036 86.1403C144.696 86.277 144.346 86.3495 143.986 86.3578C143.606 86.3665 143.239 86.3052 142.887 86.1737C142.535 86.0476 142.222 85.8668 141.948 85.6315C141.68 85.4015 141.462 85.1247 141.293 84.801C141.13 84.4773 141.044 84.1249 141.035 83.744ZM143.884 81.5605C143.573 81.5676 143.274 81.6255 142.986 81.7341C142.704 81.8426 142.453 81.9934 142.232 82.1864C142.016 82.3792 141.844 82.606 141.716 82.8666C141.593 83.1272 141.535 83.4157 141.542 83.7323C141.55 84.0543 141.626 84.3451 141.772 84.6048C141.917 84.8645 142.105 85.083 142.335 85.2603C142.564 85.4375 142.822 85.5712 143.109 85.6612C143.396 85.7566 143.686 85.801 143.982 85.7942C144.293 85.787 144.589 85.7265 144.871 85.6126C145.159 85.504 145.41 85.3533 145.626 85.1604C145.842 84.9675 146.011 84.7408 146.134 84.4803C146.262 84.2197 146.323 83.9337 146.315 83.6225C146.308 83.3006 146.231 83.0097 146.086 82.75C145.946 82.4902 145.761 82.2716 145.531 82.0944C145.302 81.9171 145.044 81.7808 144.757 81.6854C144.47 81.5953 144.179 81.5537 143.884 81.5605Z" fill="#19312E"/>
<path d="M141.095 87.9227L146.789 88.4208L146.579 90.8189C146.558 91.0648 146.484 91.2874 146.359 91.4866C146.239 91.6862 146.087 91.8534 145.903 91.9882C145.724 92.1234 145.524 92.2217 145.304 92.2832C145.082 92.3501 144.862 92.3739 144.643 92.3547C144.434 92.3365 144.236 92.2869 144.05 92.2059C143.868 92.1307 143.704 92.0302 143.559 91.9043C143.419 91.7789 143.302 91.634 143.209 91.4696C143.121 91.3057 143.066 91.1258 143.046 90.9301L140.726 92.1414L140.781 91.5078L143 90.3442L143.148 88.6599L141.046 88.4761L141.095 87.9227ZM143.645 88.7034L143.481 90.5721C143.467 90.7379 143.488 90.8906 143.546 91.0304C143.609 91.176 143.698 91.3022 143.812 91.4092C143.927 91.5162 144.059 91.6033 144.21 91.6703C144.36 91.7373 144.521 91.7783 144.692 91.7933C144.863 91.8083 145.029 91.7905 145.189 91.7399C145.355 91.6951 145.501 91.6244 145.628 91.5277C145.755 91.4364 145.859 91.3216 145.941 91.1833C146.023 91.0504 146.071 90.9064 146.084 90.7513L146.243 88.9307L143.645 88.7034Z" fill="#19312E"/>
<path d="M140.137 96.0526L145.694 97.3926L145.241 99.271C145.134 99.7145 144.967 100.086 144.74 100.384C144.514 100.683 144.249 100.912 143.945 101.071C143.641 101.235 143.306 101.33 142.94 101.358C142.58 101.387 142.209 101.356 141.828 101.264C141.406 101.162 141.037 101.007 140.723 100.799C140.414 100.592 140.165 100.344 139.975 100.055C139.79 99.7676 139.67 99.4432 139.613 99.0818C139.562 98.7216 139.586 98.338 139.684 97.931L140.137 96.0526ZM141.96 100.716C142.294 100.797 142.611 100.823 142.91 100.796C143.214 100.77 143.49 100.69 143.738 100.557C143.984 100.428 144.194 100.247 144.366 100.013C144.544 99.7794 144.674 99.4932 144.755 99.154L145.078 97.8157L140.492 96.7097L140.169 98.048C140.086 98.3924 140.07 98.7089 140.122 98.9975C140.178 99.2925 140.286 99.5533 140.447 99.7797C140.613 100.007 140.823 100.199 141.079 100.354C141.338 100.516 141.632 100.637 141.96 100.716Z" fill="#19312E"/>
<path d="M137.854 105.691L137.383 105.525L138.658 101.902L144.05 103.8L142.799 107.354L142.328 107.189L143.394 104.158L141.45 103.474L140.52 106.117L140.072 105.959L141.002 103.316L138.944 102.592L137.854 105.691Z" fill="#19312E"/>
<path d="M139.541 112.139C139.775 112.07 140.001 111.936 140.218 111.736C140.434 111.54 140.613 111.289 140.757 110.983C140.972 110.521 141.041 110.144 140.964 109.853C140.891 109.565 140.707 109.351 140.41 109.213C140.254 109.14 140.113 109.107 139.986 109.112C139.861 109.125 139.735 109.173 139.608 109.256C139.478 109.343 139.345 109.465 139.207 109.62C139.067 109.779 138.913 109.971 138.744 110.194C138.556 110.444 138.374 110.661 138.199 110.846C138.029 111.033 137.852 111.178 137.667 111.282C137.487 111.387 137.298 111.444 137.099 111.452C136.905 111.462 136.691 111.412 136.457 111.303C136.219 111.192 136.034 111.049 135.902 110.875C135.77 110.701 135.684 110.504 135.645 110.284C135.605 110.064 135.61 109.827 135.658 109.571C135.711 109.317 135.8 109.057 135.925 108.789C136.304 107.977 136.878 107.401 137.647 107.061L137.947 107.503C137.659 107.6 137.37 107.776 137.079 108.031C136.793 108.288 136.558 108.614 136.374 109.008C136.181 109.421 136.103 109.779 136.14 110.08C136.182 110.384 136.353 110.606 136.655 110.747C136.815 110.822 136.965 110.85 137.104 110.832C137.245 110.821 137.385 110.768 137.525 110.673C137.669 110.581 137.816 110.448 137.968 110.276C138.117 110.109 138.281 109.91 138.46 109.679C138.65 109.436 138.827 109.229 138.99 109.056C139.154 108.884 139.32 108.751 139.488 108.658C139.653 108.569 139.824 108.521 139.999 108.514C140.176 108.514 140.37 108.563 140.579 108.661C140.817 108.772 141.008 108.915 141.152 109.088C141.299 109.269 141.395 109.468 141.442 109.686C141.491 109.91 141.495 110.149 141.454 110.402C141.415 110.662 141.333 110.929 141.205 111.201C141.046 111.542 140.851 111.821 140.619 112.038C140.39 112.263 140.129 112.44 139.837 112.571L139.541 112.139Z" fill="#19312E"/>
<path d="M134.336 112.072L139.327 114.841L139.058 115.327L134.066 112.558L134.336 112.072Z" fill="#19312E"/>
<path d="M131.817 117.771C131.623 117.009 131.715 116.341 132.091 115.766C132.303 115.443 132.568 115.19 132.887 115.007C133.203 114.829 133.541 114.714 133.903 114.662C134.261 114.615 134.621 114.629 134.982 114.705C135.347 114.784 135.682 114.924 135.987 115.124C136.306 115.333 136.576 115.587 136.797 115.886C137.015 116.189 137.171 116.51 137.265 116.847C137.36 117.192 137.384 117.541 137.337 117.896C137.293 118.258 137.166 118.598 136.957 118.917C136.804 119.151 136.639 119.344 136.461 119.497C136.285 119.658 136.102 119.781 135.91 119.868C135.72 119.961 135.524 120.022 135.32 120.049C135.121 120.078 134.92 120.081 134.717 120.058L134.713 119.535C135.112 119.572 135.464 119.511 135.768 119.351C136.072 119.19 136.328 118.951 136.537 118.632C136.711 118.367 136.812 118.091 136.841 117.802C136.867 117.517 136.836 117.237 136.747 116.96C136.661 116.692 136.522 116.437 136.333 116.198C136.148 115.961 135.928 115.759 135.672 115.591C135.402 115.414 135.117 115.292 134.816 115.222C134.512 115.158 134.215 115.146 133.925 115.187C133.639 115.231 133.372 115.325 133.123 115.47C132.871 115.619 132.661 115.822 132.493 116.078C132.314 116.352 132.206 116.653 132.17 116.982C132.138 117.315 132.184 117.685 132.308 118.093L133.109 118.619L133.802 117.562L134.166 117.8L133.208 119.261L130.858 117.72L131.123 117.316L131.817 117.771Z" fill="#19312E"/>
<path d="M133.167 122.45L129.583 119.457L129.939 119.03L134.326 122.695L134.048 123.028L127.97 122.882L131.616 125.927L131.26 126.354L126.879 122.694L127.188 122.324L133.167 122.45Z" fill="#19312E"/>
<path d="M126.378 129.77C126.621 129.79 126.88 129.746 127.155 129.637C127.427 129.533 127.685 129.363 127.928 129.129C128.296 128.776 128.496 128.449 128.529 128.15C128.565 127.855 128.47 127.589 128.243 127.353C128.124 127.229 128.004 127.147 127.884 127.107C127.763 127.074 127.628 127.073 127.479 127.104C127.327 127.139 127.159 127.204 126.974 127.299C126.786 127.398 126.573 127.521 126.335 127.668C126.07 127.833 125.822 127.971 125.592 128.08C125.366 128.193 125.148 128.265 124.939 128.295C124.733 128.329 124.536 128.313 124.348 128.249C124.163 128.188 123.981 128.065 123.803 127.879C123.62 127.689 123.499 127.49 123.439 127.28C123.378 127.07 123.369 126.855 123.412 126.636C123.454 126.416 123.544 126.196 123.681 125.975C123.822 125.757 123.999 125.546 124.212 125.342C124.859 124.721 125.602 124.39 126.441 124.35L126.562 124.871C126.258 124.857 125.925 124.917 125.562 125.05C125.202 125.187 124.866 125.406 124.552 125.708C124.223 126.024 124.022 126.329 123.947 126.624C123.877 126.922 123.957 127.191 124.187 127.431C124.31 127.559 124.439 127.639 124.575 127.672C124.711 127.713 124.861 127.714 125.025 127.676C125.193 127.641 125.378 127.571 125.582 127.465C125.781 127.363 126.006 127.236 126.256 127.085C126.521 126.928 126.76 126.798 126.975 126.696C127.19 126.594 127.392 126.529 127.583 126.503C127.769 126.48 127.945 126.497 128.111 126.553C128.277 126.617 128.44 126.733 128.6 126.899C128.782 127.089 128.909 127.29 128.98 127.504C129.052 127.726 129.07 127.947 129.035 128.166C129 128.393 128.918 128.617 128.788 128.839C128.659 129.068 128.485 129.286 128.269 129.495C127.998 129.755 127.715 129.945 127.42 130.064C127.125 130.191 126.818 130.263 126.499 130.279L126.378 129.77Z" fill="#19312E"/>
<path d="M119.967 129.122L120.45 129.746L120.08 130.032L119.598 129.408L119.967 129.122Z" fill="#19312E"/>
</svg>
