<svg width="150" height="59" viewBox="0 0 150 59" fill="none" xmlns="http://www.w3.org/2000/svg">
<g clip-path="url(#clip0)">
<path d="M19.514 57.7358C19.9562 57.9919 20.4286 58.1919 20.9202 58.3311L21.1734 58.3874V58.528H18.4311C17.6645 58.5325 16.9045 58.3854 16.1949 58.0949C15.4853 57.8045 14.8403 57.3766 14.2968 56.8359C14.2687 56.8359 5.5452 48.3327 5.5452 48.3327V58.528H2.47023V40.7812C2.47023 39.5718 1.71552 38.5312 -0.0188599 38.0531V37.9124H5.5452V47.8781L15.7218 37.9124H17.5077L8.2265 47.0061L18.2906 56.8498C18.6527 57.2036 19.0649 57.5022 19.514 57.7358Z" fill="#B69B6E"/>
<path d="M38.3765 51.8813V37.9172H39.6375V51.8813C39.6375 53.1469 39.4125 58.5516 31.6687 58.5516C31.6687 58.5516 23.6718 59.3438 23.6718 51.8813V40.7812C23.6718 39.5718 22.889 38.5312 21.1874 38.0531V37.9124H26.7469V51.8764C26.7469 58.0733 31.95 57.3046 31.95 57.3046C33.5719 57.3093 38.3765 57.0609 38.3765 51.8813Z" fill="#B69B6E"/>
<path d="M59.6719 37.9172L52.739 53.8547L46.6171 39.6048C46.4005 39.1082 46.045 38.6847 45.5934 38.3853C45.1419 38.0859 44.6136 37.9235 44.0718 37.9172H41.3344V38.0578L41.9484 38.2265C42.311 38.3228 42.6473 38.4992 42.9329 38.7426C43.2184 38.9859 43.4458 39.29 43.5984 39.6327L51.8999 58.9499L61.0406 37.9172H59.6719Z" fill="#B69B6E"/>
<path d="M60.7922 54.642L59.0578 58.5279H57.689L66.8578 37.917L77.4422 58.5279H74.0578L65.8781 43.2092L61.2656 53.5686H61.2703L60.7922 54.642Z" fill="#B69B6E"/>
<path d="M81.7453 57.2578V37.9172H76.2516V38.0578C77.9578 38.5265 78.7125 39.5764 78.7125 40.7858V58.5281H91.8375V57.2578H81.7453Z" fill="#B69B6E"/>
<path d="M100.936 48.1922L107.423 37.9172H108.905L101.526 49.636V58.5422H98.4374V50.0109L91.5327 39.6187C91.2973 39.2714 91.004 38.967 90.6656 38.7188C90.323 38.485 89.9468 38.3047 89.5499 38.1843L89.0483 38.072V37.9312H92.0952C92.6951 37.9359 93.2855 38.0807 93.8194 38.3542C94.3533 38.6276 94.8159 39.0221 95.1702 39.5061L100.936 48.1922Z" fill="#B69B6E"/>
<path d="M106.917 58.5279L108.647 54.642H108.652L109.13 53.5686H109.125L113.738 43.2092L121.917 58.5279H125.302L114.717 37.917L105.544 58.5279H106.917Z" fill="#B69B6E"/>
<path d="M137.841 53.9062L146.48 37.9124L150 58.4953L149.888 58.5234H146.897L144.464 44.3858L136.875 58.528L129.914 45.3187L128.405 58.528H127.144L128.602 45.7452C128.602 45.6233 128.602 45.4874 128.639 45.3421C128.85 43.3452 129.281 39.1874 126.361 38.5077V38.3671C129.886 38.4656 131.339 41.3343 132.361 43.3593C132.488 43.6171 132.614 43.8609 132.731 44.0812L137.841 53.9062Z" fill="#B69B6E"/>
<path d="M74.9343 2.37637L74.8687 2.43749C74.7374 2.54999 74.6202 2.65297 74.5124 2.76547C74.1656 3.11235 73.889 3.37957 73.6359 3.62332L73.589 3.66544C73.064 4.17638 72.6515 4.60298 71.9484 5.35298C71.4187 5.93892 71.0906 5.65767 70.7343 5.35298L70.5843 5.22184C70.1155 4.82809 70.3827 4.59839 70.6499 4.39214L70.6828 4.36856L70.8327 4.24199C71.4562 3.60918 71.9531 3.11715 72.4312 2.64371L72.5999 2.47479C73.4203 1.66386 74.2405 0.84834 75.0327 0.00927734C76.4765 1.41553 77.9437 2.90616 79.3968 4.3546C79.4136 4.36903 79.4293 4.38474 79.4437 4.40152L79.4906 4.44364C79.7249 4.66395 79.9594 4.88889 79.5375 5.20764C79.4719 5.25921 79.4062 5.3202 79.3359 5.38114C79.0499 5.64364 78.7547 5.91078 78.3 5.4514C77.4234 4.56547 76.9874 4.13421 76.289 3.44983L75.9702 3.13123L75.6468 2.81239C75.5203 2.68583 75.3843 2.56875 75.2437 2.44687C75.1781 2.39531 75.1171 2.33889 75.0468 2.27796L74.9343 2.37637Z" fill="#B69B6E"/>
<path fill-rule="evenodd" clip-rule="evenodd" d="M76.3546 24.1687C79.6875 23.9484 82.0968 23.114 83.8546 22.0124C85.5557 20.9498 86.8956 19.3974 87.6984 17.5593C88.3075 16.1426 88.6569 14.6278 88.7297 13.0874C88.7297 12.6187 88.7297 12.1922 88.7297 11.864C85.6687 11.9156 83.3812 12.6843 81.6656 13.7905C79.9604 14.913 78.5928 16.4784 77.7093 18.3187C76.9862 19.7981 76.4915 21.3786 76.2421 23.0062C76.2001 23.3974 76.2383 23.7929 76.3546 24.1687ZM61.2937 11.864C61.2937 12.1968 61.2937 12.6187 61.2937 13.1156C61.3785 14.6527 61.7422 16.1617 62.3671 17.5687C63.2031 19.4091 64.5713 20.9569 66.2953 22.0124C68.0812 23.1187 70.514 23.9531 73.9265 24.1687C74.047 23.7641 74.0679 23.3362 73.9874 22.9218C73.7152 21.2428 73.1939 19.6139 72.4406 18.0889C71.5391 16.2334 70.1424 14.6633 68.4047 13.5516C66.6843 12.4781 64.3828 11.7797 61.2937 11.864ZM76.0078 17.6953C75.5307 14.3479 73.8266 11.2974 71.2265 9.13599C70.4018 8.45053 69.4967 7.86802 68.5312 7.40152C68.278 7.27965 68.0624 7.18596 67.8843 7.11565C67.8065 7.25584 67.7392 7.4014 67.6828 7.55144C67.4838 8.1019 67.3378 8.67016 67.2468 9.24837C67.139 9.86243 67.0734 10.4671 67.0312 10.9171C67.8495 11.2075 68.635 11.5831 69.3749 12.0375C71.3935 13.3196 73.0164 15.137 74.0624 17.2874C74.4878 18.1321 74.8436 19.01 75.1265 19.9124C75.3697 19.1543 75.6641 18.4135 76.0078 17.6953ZM82.6593 7.70616C83.1422 8.72961 83.3613 9.85761 83.2968 10.9874C82.3825 11.3195 81.507 11.7503 80.6859 12.2719C79.3824 13.12 78.2489 14.2042 77.3437 15.4687C77.0874 14.5576 76.7501 13.6713 76.3359 12.8203L76.4765 12.5202C76.7509 11.9857 77.0758 11.4787 77.4468 11.0062C78.7605 9.38428 80.4196 8.07597 82.3031 7.17653C82.4345 7.3442 82.5536 7.52118 82.6593 7.70616ZM77.1234 8.57797L75.0327 6.50156L73.0968 8.42806C73.9136 9.19713 74.6488 10.0485 75.2906 10.9686C75.5171 10.5961 75.7659 10.2376 76.0359 9.89519C76.3678 9.43176 76.7312 8.99163 77.1234 8.57797ZM78.3047 7.57021C79.4849 6.66294 80.7632 5.89109 82.1156 5.2688L82.5843 5.05296C83.2871 5.51297 83.8601 6.14585 84.2484 6.89066C84.7993 8.00915 85.0864 9.2391 85.0875 10.4859C86.5608 10.1698 88.0672 10.0343 89.5734 10.0826H90.3327C90.7346 12.8533 90.3866 15.6812 89.325 18.2718C88.3763 20.4339 86.7984 22.2602 84.7968 23.5125C81.9093 25.336 78.4968 25.8844 75.1359 26.0016C71.7375 25.8844 68.2875 25.3407 65.3578 23.5219C63.3334 22.2808 61.7269 20.462 60.7452 18.3C59.6088 15.7465 59.2328 12.9194 59.6624 10.1577L60.389 10.1108C62.0231 9.9809 63.6674 10.082 65.2734 10.4109C65.3202 9.97961 65.3812 9.47329 65.475 8.92954C65.6109 8.1561 66.5671 5.35304 67.0687 4.89366C67.4859 5.03897 67.9124 5.18897 68.3249 5.36241C68.5687 5.45616 68.9062 5.59675 69.314 5.79363C70.248 6.22371 71.1302 6.75833 71.9437 7.38733L75.014 4.3313L78.3047 7.57021Z" fill="#B69B6E"/>
</g>
<defs>
<clipPath id="clip0">
<rect width="150" height="58.95" fill="white"/>
</clipPath>
</defs>
</svg>
