<svg width="437" height="366" viewBox="0 0 437 366" fill="none" xmlns="http://www.w3.org/2000/svg">
<g opacity="0.03">
<path d="M217.88 33.2721L216.956 34.1311C215.107 35.7124 213.456 37.16 211.938 38.7413C207.052 43.6171 203.157 47.3732 199.592 50.7994L198.932 51.3913C191.537 58.5731 185.727 64.5696 175.824 75.1116C168.363 83.3476 163.742 79.3943 158.724 75.1116L156.611 73.2682C150.008 67.7336 153.772 64.505 157.535 61.6059L157.998 61.2745L160.11 59.4954C168.891 50.6005 175.89 43.6845 182.624 37.0298L185.001 34.6555C196.555 23.2569 208.108 11.7939 219.266 0C239.601 19.7664 260.267 40.7189 280.734 61.0783C280.97 61.281 281.191 61.5019 281.394 61.7378L282.054 62.3298C285.355 65.4265 288.657 68.5883 282.715 73.0687C281.791 73.7935 280.866 74.6508 279.876 75.5073C275.848 79.1971 271.689 82.952 265.285 76.495C252.938 64.0422 246.798 57.9804 236.961 48.3607L232.471 43.8824L227.916 39.4009C226.133 37.6219 224.218 35.9761 222.238 34.263C221.313 33.5383 220.455 32.7453 219.465 31.8887L217.88 33.2721Z" fill="#19312E"/>
<path fill-rule="evenodd" clip-rule="evenodd" d="M237.7 340.203C284.674 337.102 318.633 325.358 343.409 309.854C367.385 294.897 386.27 273.049 397.584 247.178C406.169 227.239 411.093 205.919 412.119 184.238C412.119 177.641 412.119 171.638 412.119 167.02C368.977 167.746 336.735 178.564 312.555 194.134C288.521 209.933 269.246 231.964 256.794 257.867C246.601 278.688 239.629 300.933 236.115 323.841C235.522 329.346 236.061 334.914 237.7 340.203ZM25.4255 167.02C25.4255 171.704 25.4255 177.641 25.4255 184.635C26.6208 206.27 31.7477 227.507 40.5552 247.31C52.3376 273.214 71.6216 294.998 95.9198 309.854C121.092 325.424 155.38 337.168 203.477 340.203C205.175 334.508 205.47 328.486 204.336 322.653C200.5 299.022 193.152 276.096 182.534 254.633C169.828 228.517 150.142 206.418 125.65 190.771C101.403 175.663 68.964 165.832 25.4255 167.02ZM232.812 249.092C226.088 201.979 202.07 159.045 165.422 128.624C153.799 118.976 141.042 110.778 127.433 104.212C123.866 102.497 120.827 101.178 118.316 100.188C117.22 102.162 116.271 104.21 115.476 106.322C112.671 114.07 110.613 122.068 109.331 130.206C107.811 138.848 106.887 147.359 106.292 153.693C117.825 157.78 128.897 163.066 139.326 169.462C167.777 187.506 190.649 213.086 205.393 243.351C211.388 255.24 216.404 267.596 220.391 280.298C223.818 269.626 227.968 259.201 232.812 249.092ZM326.561 108.5C333.367 122.904 336.456 138.78 335.546 154.682C322.659 159.356 310.32 165.419 298.747 172.76C280.375 184.698 264.399 199.956 251.641 217.754C248.029 204.93 243.275 192.456 237.436 180.479L239.418 176.256C243.285 168.733 247.864 161.597 253.094 154.946C271.61 132.118 294.993 113.705 321.54 101.045C323.393 103.405 325.071 105.896 326.561 108.5ZM248.536 120.77L219.069 91.5454L191.783 118.66C203.295 129.484 213.657 141.467 222.703 154.418C225.895 149.174 229.403 144.129 233.208 139.309C237.886 132.787 243.008 126.592 248.536 120.77ZM265.185 106.586C281.82 93.8169 299.837 82.9533 318.898 74.1949L325.504 71.1571C335.41 77.6315 343.485 86.539 348.958 97.0218C356.724 112.764 360.77 130.075 360.784 147.624C381.551 143.175 402.782 141.267 424.011 141.948H434.713C440.377 180.944 435.473 220.745 420.51 257.206C407.139 287.637 384.899 313.341 356.688 330.967C315.991 356.631 267.893 364.351 220.523 366C172.624 364.351 123.999 356.697 82.7063 331.099C54.1744 313.631 31.5317 288.033 17.6953 257.603C1.67757 221.664 -3.62093 181.874 2.4341 143.004L12.6741 142.344C35.7062 140.516 58.8818 141.938 81.5167 146.567C82.1774 140.497 83.0366 133.371 84.358 125.718C86.2739 114.832 99.7511 75.3805 106.82 68.915C112.7 70.9602 118.713 73.0714 124.527 75.5125C127.962 76.8319 132.719 78.8107 138.467 81.5816C151.631 87.6348 164.065 95.1594 175.531 104.012L218.805 61L265.185 106.586Z" fill="#19312E"/>
</g>
</svg>
