<svg width="404" height="140" viewBox="0 0 404 140" fill="none" xmlns="http://www.w3.org/2000/svg">
<path d="M33.7654 42.5522C34.4523 44.2312 35.2917 45.5667 36.2839 46.5588C37.276 47.551 38.4207 48.1233 39.7181 48.276V49.7069C39.4129 49.7832 38.974 49.8405 38.4017 49.8786C37.8674 49.955 37.3905 49.9931 36.9707 49.9931C36.0549 49.9931 35.0628 49.9168 33.9943 49.7642C32.9641 49.5734 31.9338 49.2299 30.9035 48.7339C29.9114 48.1997 28.9574 47.4556 28.0416 46.5016C27.164 45.5095 26.3817 44.193 25.6949 42.5522L24.3784 39.3469H9.15314L4.45964 49.7642H1.48328L18.3684 11.9872H20.9441L33.7654 42.5522ZM10.3551 36.7712H23.2909L16.9947 21.8321L10.3551 36.7712ZM68.993 14.2767C68.5351 14.2767 68.0772 14.2958 67.6193 14.334C67.1614 14.3721 66.7607 14.4294 66.4173 14.5057C65.9976 14.582 65.616 14.6392 65.2726 14.6774V32.1922H68.7068C69.6608 32.1922 70.5957 32.0586 71.5115 31.7915C72.4655 31.5244 73.3049 31.0474 74.03 30.3605C74.755 29.6737 75.3273 28.7579 75.7471 27.6131C76.205 26.4302 76.4339 24.9611 76.4339 23.2058C76.4339 21.4505 76.205 20.0005 75.7471 18.8557C75.3273 17.711 74.755 16.7952 74.03 16.1083C73.3431 15.4215 72.5608 14.9445 71.6832 14.6774C70.8056 14.4103 69.9088 14.2767 68.993 14.2767ZM68.993 11.9872C69.8325 11.9872 70.8056 12.0254 71.9122 12.1017C73.0187 12.178 74.1444 12.3688 75.2892 12.6741C76.4339 12.9412 77.5405 13.3228 78.609 13.8188C79.7156 14.3149 80.7077 15.0017 81.5853 15.8794C82.463 16.7189 83.1498 17.7682 83.6459 19.0275C84.1801 20.2485 84.4472 21.7367 84.4472 23.492C84.4472 25.1328 84.1801 26.5447 83.6459 27.7276C83.1498 28.9105 82.4821 29.9217 81.6426 30.7612C80.8031 31.5625 79.8682 32.2112 78.8379 32.7073C77.8076 33.2034 76.7774 33.5849 75.7471 33.8521C74.755 34.1192 73.801 34.2909 72.8852 34.3672C72.0075 34.4435 71.2825 34.4817 70.7102 34.4817H65.2726V49.7642H57.8317V19.4281C57.8317 17.711 57.5836 16.3373 57.0876 15.307C56.6297 14.2386 55.5421 13.7043 53.825 13.7043H53.2526V11.9872H68.993ZM102.085 14.2767C101.627 14.2767 101.169 14.2958 100.711 14.334C100.253 14.3721 99.8527 14.4294 99.5093 14.5057C99.0895 14.582 98.7079 14.6392 98.3645 14.6774V30.1888H101.799C102.715 30.1888 103.63 30.0553 104.546 29.7882C105.462 29.5211 106.282 29.0822 107.007 28.4717C107.771 27.8612 108.381 27.0408 108.839 26.0105C109.297 24.9802 109.526 23.721 109.526 22.2328C109.526 20.7446 109.297 19.5044 108.839 18.5123C108.381 17.482 107.79 16.6616 107.065 16.0511C106.34 15.4024 105.538 14.9445 104.661 14.6774C103.783 14.4103 102.924 14.2767 102.085 14.2767ZM100.654 32.4783H98.3645V49.7642H90.8664V19.4281C90.8664 17.711 90.6183 16.3373 90.1223 15.307C89.6644 14.2386 88.5769 13.7043 86.8597 13.7043H86.2873V11.9872H102.085C103.001 11.9872 104.012 12.0254 105.119 12.1017C106.225 12.178 107.351 12.3497 108.496 12.6168C109.64 12.8839 110.747 13.2655 111.815 13.7616C112.922 14.2195 113.895 14.8491 114.735 15.6504C115.574 16.4136 116.242 17.3676 116.738 18.5123C117.272 19.6189 117.539 20.9545 117.539 22.519C117.539 24.0072 117.253 25.3045 116.681 26.4111C116.146 27.4796 115.421 28.3954 114.506 29.1586C113.628 29.8836 112.636 30.475 111.529 30.9329C110.423 31.3908 109.335 31.7533 108.267 32.0204L114.277 42.0371C115.002 43.2581 115.688 44.2693 116.337 45.0707C117.024 45.8338 117.673 46.4444 118.283 46.9023C118.894 47.3602 119.447 47.7036 119.943 47.9326C120.477 48.1233 120.954 48.2569 121.374 48.3332V49.7642C121.069 49.9168 120.516 50.0503 119.714 50.1648C118.951 50.2793 118.207 50.3365 117.482 50.3365C116.49 50.3365 115.517 50.203 114.563 49.9359C113.647 49.6688 112.731 49.2109 111.815 48.5622C110.938 47.9135 110.041 47.0549 109.125 45.9865C108.248 44.918 107.332 43.6016 106.378 42.0371L100.654 32.4783ZM152.638 30.8757C152.638 25.3045 151.684 21.0117 149.776 17.9972C147.868 14.9445 145.178 13.4182 141.706 13.4182C138.233 13.4182 135.543 14.9445 133.635 17.9972C131.765 21.0117 130.83 25.3045 130.83 30.8757C130.83 36.4468 131.765 40.7587 133.635 43.8114C135.543 46.826 138.233 48.3332 141.706 48.3332C145.178 48.3332 147.868 46.826 149.776 43.8114C151.684 40.7587 152.638 36.4468 152.638 30.8757ZM122.817 30.8757C122.817 28.052 123.256 25.419 124.134 22.9769C125.049 20.5347 126.328 18.4169 127.969 16.6235C129.648 14.83 131.632 13.4182 133.921 12.3879C136.249 11.3576 138.844 10.8425 141.706 10.8425C144.567 10.8425 147.143 11.3576 149.433 12.3879C151.76 13.4182 153.745 14.83 155.385 16.6235C157.026 18.4169 158.285 20.5347 159.163 22.9769C160.079 25.419 160.537 28.052 160.537 30.8757C160.537 33.6994 160.079 36.3324 159.163 38.7745C158.285 41.2166 157.026 43.3344 155.385 45.1279C153.745 46.9213 151.76 48.3332 149.433 49.3635C147.143 50.3938 144.567 50.9089 141.706 50.9089C138.844 50.9089 136.249 50.3938 133.921 49.3635C131.632 48.3332 129.648 46.9213 127.969 45.1279C126.328 43.3344 125.049 41.2166 124.134 38.7745C123.256 36.3324 122.817 33.6994 122.817 30.8757ZM206.98 40.0337C206.98 43.5062 207.266 46.12 207.838 47.8753C208.449 49.5924 209.555 50.6036 211.158 50.9089V52.3399C206.999 52.3399 204.022 51.3668 202.229 49.4207C200.435 47.4746 199.539 44.3456 199.539 40.0337V19.7716L187.004 49.7642H185.115L169.775 18.6268V49.7642H166.913V11.9872H173.896L187.748 40.091L199.481 11.9872H206.98V40.0337ZM216.444 11.9872H223.885V42.3232C223.885 44.0404 224.114 45.4332 224.572 46.5016C225.068 47.5319 226.174 48.047 227.891 48.047H228.464V49.7642H221.595C220.603 49.7642 219.764 49.6497 219.077 49.4207C218.428 49.1918 217.894 48.7911 217.474 48.2187C217.093 47.6464 216.825 46.8832 216.673 45.9292C216.52 44.9753 216.444 43.7733 216.444 42.3232V11.9872ZM244.932 50.7372C243.367 50.7372 241.803 50.5846 240.238 50.2793C238.712 49.974 237.338 49.5352 236.117 48.9628C234.896 48.3523 233.904 47.6273 233.141 46.7878C232.378 45.9101 231.996 44.9371 231.996 43.8687V37.1718H233.599C234.209 41.1403 235.43 43.9641 237.262 45.643C239.132 47.322 241.669 48.1615 244.874 48.1615C247.05 48.1615 248.786 47.7036 250.083 46.7878C251.419 45.8338 252.086 44.441 252.086 42.6094C252.086 40.9686 251.552 39.614 250.484 38.5456C249.454 37.439 248.023 36.3324 246.191 35.2258L239.151 30.9902C236.556 29.4638 234.724 27.8993 233.656 26.2967C232.587 24.694 232.053 22.8433 232.053 20.7446C232.053 17.7301 233.198 15.3452 235.487 13.5899C237.815 11.8346 240.944 10.9569 244.874 10.9569C246.439 10.9569 247.984 11.1096 249.511 11.4148C251.075 11.7201 252.468 12.178 253.689 12.7885C254.91 13.3609 255.902 14.0859 256.665 14.9636C257.429 15.8031 257.81 16.757 257.81 17.8255V24.5223H256.208C255.559 20.5538 254.338 17.7301 252.544 16.0511C250.751 14.3721 248.404 13.5326 245.504 13.5326C243.444 13.5326 241.803 14.0287 240.582 15.0208C239.399 16.0129 238.807 17.3676 238.807 19.0847C238.807 19.886 238.941 20.611 239.208 21.2597C239.513 21.8703 239.914 22.4427 240.41 22.9769C240.944 23.5111 241.574 24.0262 242.299 24.5223C243.024 25.0184 243.844 25.5335 244.76 26.0677L251.8 30.2461C254.395 31.7724 256.284 33.2797 257.467 34.7679C258.688 36.2179 259.298 37.9923 259.298 40.091C259.298 43.3726 258.058 45.9674 255.578 47.8753C253.098 49.7832 249.549 50.7372 244.932 50.7372ZM287.491 11.9872C288.483 11.9872 289.284 12.1208 289.895 12.3879C290.543 12.655 291.039 12.9984 291.383 13.4182C291.764 13.8379 292.012 14.334 292.127 14.9063C292.28 15.4406 292.356 15.9939 292.356 16.5662V21.4314H290.639C290.639 18.9893 290.009 17.234 288.75 16.1656C287.529 15.0971 285.774 14.5629 283.484 14.5629H274.269V28.8724H289.151V31.4481H274.269V47.1885H284.056C286.155 47.1885 287.93 46.7306 289.38 45.8148C290.868 44.8608 292.108 43.1437 293.1 40.6633L294.645 41.2357L292.986 45.7575C292.566 46.9786 292.012 47.9516 291.326 48.6766C290.677 49.4017 289.57 49.7642 288.006 49.7642H266.828V19.4281C266.828 17.711 266.58 16.3373 266.084 15.307C265.626 14.2386 264.538 13.7043 262.821 13.7043H262.249V11.9872H287.491Z" fill="white"/>
<path d="M190.848 83.3274C190.489 83.5979 195.722 81.1736 194.957 80.9052C194.719 81.1063 193.384 81.8075 192.776 82.0923C190.768 83.0196 189.991 83.6264 188.705 84.0751C188.76 83.947 188.976 81.186 188.238 80.2913C187.031 78.8613 185.387 78.5184 184.903 78.796C183.375 79.3835 182.681 78.1739 181.666 78.9818C181.545 79.0513 174.307 87.8999 178.406 91.8499C180.392 93.7974 182.077 93.7632 183.517 92.7435C185.846 90.8608 187.193 88.2222 188.031 86.4875C190.914 85.5724 192.487 84.6701 193.088 84.2608C195.317 82.821 197.157 81.1537 197.088 81.0327C197.019 80.9118 194.438 82.7465 194.134 82.8889C194.013 82.9583 195.802 81.4813 196.444 80.6949C196.796 80.2999 195.59 81.0562 195.469 81.1256C192.581 83.0405 190.081 84.121 190.848 83.3274ZM194.882 81.784C194.365 82.5633 191.081 84.1261 191.254 83.8663C192.045 83.5085 193.801 82.5332 194.882 81.784ZM185.592 81.0053C186.34 80.9625 186.001 84.8549 185.012 85.0366C183.752 84.859 184.047 81.2815 185.468 81.0125L185.53 81.0089L185.592 81.0053ZM182.167 84.4503C182.639 85.0479 183.391 86.1916 185.028 86.41C184.969 86.4758 182.816 91.4094 180.754 91.4028C178.44 91.3483 182.167 84.4503 182.167 84.4503ZM207.934 63.3565C206.219 63.9546 203.992 66.5187 202.763 67.9635C193.939 79.6518 188.068 100.353 189.058 109.979C189.235 111.968 189.83 115.807 193.69 115.585C200.601 115.189 207.211 95.3817 202.24 88.2332C203.813 87.3309 207.717 84.6081 209.344 83.5777C211.452 82.2073 214.758 79.9561 214.154 80.3032C213.912 80.442 208.41 83.6313 204.851 85.8345C204.727 85.8417 217.398 78.0555 217.581 77.9825C218.241 77.5074 212.487 80.6487 213.081 80.1149C213.737 79.5775 216.757 77.7799 216.816 77.7141C217.092 77.0736 212.327 80.0332 215.34 78.1112C216.905 77.0843 216.718 77.095 215.032 78.1913C215.036 78.2536 214.915 78.323 214.79 78.3301C214.427 78.5384 201.195 86.3567 204.644 84.4096C207.526 82.3702 210.011 81.0407 215.08 77.9387C206.926 81.7175 204.747 84.0289 199.605 86.9477C198.052 87.0993 197.165 87.9623 196.083 88.7115C199.93 75.185 205.413 69.4981 208.314 66.708C208.493 66.5727 208.264 68.0226 208.444 67.8874C208.803 67.6169 209.564 65.6367 209.923 65.3662C209.896 63.8061 209.341 62.8384 207.934 63.3565ZM207.184 65.5234C207.495 65.5056 205.54 67.3669 205.43 67.6231C205.32 67.8793 204.443 68.9291 204.443 68.9291C204.663 68.4167 205.336 67.0663 207.184 65.5234ZM203.808 69.8401C202.592 72.596 204.414 68.431 199.649 76.8253C198.977 78.1757 196.486 83.7534 196.034 84.5914C197.197 80.9016 199.967 74.7456 203.808 69.8401ZM196.621 81.7467C196.297 82.6398 193.586 90.9163 192.824 93.9585C193.252 91.6226 193.421 91.3006 194.492 87.1162C194.713 86.6038 196.404 82.3214 196.621 81.7467ZM194.616 84.9227C194.616 84.9227 193.392 88.6161 192.762 90.7137C192.563 91.5996 191.58 95.1543 191.57 94.9675C190.848 95.4462 192.49 91.4164 192.7 90.7172C192.94 89.4541 193.463 87.675 193.676 87.0381C194.117 86.0133 194.616 84.9227 194.616 84.9227ZM211.267 81.156C210.665 81.5653 209.757 82.0548 209.273 82.3324C206.864 83.9074 204.753 85.2155 204.445 85.2956C205.861 83.84 212.59 80.268 211.267 81.156ZM190.9 97.4422C191.741 95.7698 189.958 102.806 189.984 105.428C189.392 109.273 190.345 111.717 190.418 111.9C190.564 112.266 189.537 110.701 189.602 108.574C189.375 105.713 190.377 99.2213 190.66 98.7053C190.719 98.6395 190.9 97.4422 190.9 97.4422ZM192.399 96.3566C193.116 94.6914 191.437 103.533 191.405 102.973C191.372 102.413 192.399 96.3566 192.399 96.3566ZM200.479 90.2083C201.627 91.7041 201.333 97.4681 200.258 101.59C197.791 110.852 191.908 119.373 191.677 109.891C191.494 104.529 194.698 91.7895 195.541 91.2413C195.625 91.6113 196.733 92.4223 197.159 92.2105C198.372 91.5786 199.89 89.7424 200.479 90.2083ZM196.927 113.213C197.169 113.074 200.002 109.101 201.639 103.885C203.858 96.8234 202.859 93.57 203.322 95.1051C204.016 98.501 201.018 110.48 196.927 113.213ZM190.784 104.133L190.788 104.195C190.487 104.4 190.659 109.575 190.848 110.688C190.147 109.354 190.41 104.154 190.784 104.133ZM199.896 106.171C199.202 110.396 195.41 113.987 195.374 113.365C199.536 109.69 199.475 106.445 201.337 99.7167C201.363 102.339 200.07 104.849 199.896 106.171ZM244.396 49.7697C243.781 52.1163 239.12 66.689 238.252 68.9877C230.314 96.1171 231.04 97.887 230.507 99.4793C229.714 100.899 231.408 102.114 232.829 101.845C239.418 99.0929 241.282 98.9234 257.086 95.6426C256.958 95.5875 259.247 95.2062 262.163 94.8515C266.382 94.3594 267.5 94.2329 267.862 94.0246C268.042 93.8894 268.353 93.8715 268.416 93.8679C269.716 93.6684 270.643 93.4902 271.075 93.403C272.126 93.2177 270.632 93.3035 267.083 93.5071C265.464 93.6 264.029 93.62 263.966 93.6235C263.838 93.5684 266.571 93.2867 267.691 93.2224C268.003 93.2045 268.252 93.1902 268.245 93.0657C268.238 92.9411 268.109 92.886 267.802 92.9662C267.556 93.0427 267.311 93.1193 267.248 93.1228C267.186 93.1264 266.311 93.1142 265.252 93.1749C263.82 93.2571 263.443 93.2163 263.498 93.0882C263.553 92.9601 263.55 92.8978 263.425 92.905C263.301 92.9121 263.121 93.0474 263.063 93.1132C263.007 93.2413 262.821 93.252 262.132 93.2291C261.63 93.1954 261.07 93.2276 260.949 93.297C260.645 93.4394 258.656 93.616 258.466 93.5644C258.404 93.568 258.455 93.3776 258.638 93.3047C258.821 93.2317 258.942 93.1623 258.756 93.173L258.693 93.1766C258.631 93.1801 258.635 93.2424 258.51 93.2495C258.199 93.2674 258.019 93.4027 258.089 93.5236C258.158 93.6446 257.975 93.7175 257.418 93.812C256.982 93.837 256.667 93.7926 256.726 93.7267C256.785 93.6609 256.653 93.5435 256.466 93.5543C256.217 93.5685 256.158 93.6344 256.228 93.7553C256.425 93.9314 256.301 93.9385 254.257 94.2433C250.978 94.8062 249.623 95.1339 250.231 94.8491C250.414 94.7761 250.535 94.7067 250.719 94.6337C250.532 94.6445 250.411 94.7139 250.224 94.7246C249.975 94.7389 247.627 95.186 244.92 95.9036C244.795 95.9107 244.612 95.9837 244.363 95.998L244.114 96.0123C243.557 96.1067 242.941 96.267 242.443 96.2956C249.509 95.3278 243.315 96.2455 239.348 96.7856C239.103 96.8621 238.861 97.0009 238.549 97.0188C238.3 97.0331 238.117 97.1061 237.868 97.1204C237.626 97.2592 237.564 97.2628 236.945 97.3608C236.633 97.3786 236.392 97.5174 236.08 97.5353C235.959 97.6047 235.527 97.692 235.465 97.6956C234.237 98.0784 238.685 84.1426 240.688 76.5939C245.972 56.5507 246.806 54.7538 248.055 51.4962C247.812 47.2623 245.073 47.4195 244.396 49.7697ZM239.348 96.7856C238.974 96.807 238.546 96.9565 238.234 96.9744C238.359 96.9673 238.476 96.8356 238.601 96.8284C238.912 96.8106 239.279 96.6646 239.714 96.6396C239.652 96.6432 239.348 96.7856 239.348 96.7856C239.593 96.709 239.777 96.636 239.901 96.6289L239.963 96.6253C239.78 96.6983 239.535 96.7748 239.348 96.7856ZM238.234 96.9744C238.11 96.9815 238.051 97.0474 237.927 97.0545L238.048 96.9851L238.234 96.9744ZM238.048 96.9851C236.436 97.2026 235.879 97.297 238.231 96.9121C238.169 96.9157 238.11 96.9815 238.048 96.9851ZM238.231 96.9121C238.293 96.9086 238.352 96.8427 238.414 96.8392C238.476 96.8356 238.597 96.7662 238.722 96.759L238.601 96.8284C238.476 96.8356 238.293 96.9086 238.231 96.9121ZM239.901 96.6289L239.714 96.6396L239.777 96.636L239.901 96.6289ZM245.559 55.8873C245.749 55.9388 242.749 66.7931 240.452 72.4846C240.184 73.2496 236.336 87.8381 237.411 83.716C237.327 81.1596 237.089 83.547 239.108 75.1854C239.728 74.0253 245.497 55.8909 245.559 55.8873ZM239.32 70.1757C239.32 70.1757 238.451 73.5364 237.911 75.0042C234.516 87.6927 235.223 84.7785 231.98 99.02C231.925 99.1481 231.516 98.5469 234.336 87.8279C235.669 82.754 236.655 77.0752 239.32 70.1757ZM236.375 86.3366C236.186 87.4094 233.937 98.283 233.992 98.1549C233.999 98.2794 233.629 98.3631 233.629 98.3631C234.492 93.8159 235.222 88.0269 236.375 86.3366ZM255.474 93.6737L255.536 93.6701C255.543 93.7946 254.308 94.0529 253.807 94.0192C253.433 94.0407 253.613 93.9054 254.419 93.7967L254.668 93.7824C255.041 93.761 255.349 93.6808 255.474 93.6737ZM262.15 93.5404C262.212 93.5368 262.278 93.5955 262.216 93.5991C262.157 93.6649 262.476 93.7716 262.911 93.7466C263.472 93.7144 263.226 93.791 262.234 93.9104C261.366 94.0227 260.933 94.11 261.245 94.0921C261.556 94.0742 261.874 94.1809 261.878 94.2431C261.882 94.3054 262.134 94.3534 262.38 94.2768C262.687 94.1967 262.874 94.186 262.881 94.3105C262.889 94.435 262.639 94.4493 262.141 94.4779C261.643 94.5065 261.332 94.5244 261.336 94.5866C261.339 94.6489 261.094 94.7254 260.533 94.7576C260.035 94.7862 259.163 94.8362 258.482 94.9378C257.801 95.0394 256.812 95.2211 256.379 95.3083C255.639 95.4757 255.577 95.4793 256.061 95.2017C256.303 95.0629 256.424 94.9934 256.237 95.0042C256.05 95.0149 255.981 94.8939 256.036 94.7658C256.146 94.5096 256.146 94.5096 255.911 94.773C255.794 94.9047 255.494 95.1093 255.369 95.1165C255.182 95.1272 255.175 95.0027 255.355 94.8674C255.593 94.6663 255.531 94.6699 255.033 94.6985C254.597 94.7235 255.333 94.4938 257.747 94.1054C258.245 94.0768 258.74 93.986 258.93 94.0375C259.121 94.0891 259.242 94.0197 259.238 93.9574C259.234 93.8951 259.231 93.8329 259.293 93.8293C259.355 93.8257 259.418 93.8221 259.546 93.8773C259.992 94.039 259.692 94.2437 258.637 94.3667C258.139 94.3953 257.714 94.6071 257.655 94.6729C257.541 94.8669 258.475 94.8133 258.651 94.6158C258.71 94.5499 259.201 94.3968 259.699 94.3682C260.384 94.3289 260.498 94.135 260.366 94.0176C260.234 93.9002 260.414 93.765 260.85 93.74C261.161 93.7221 261.652 93.569 261.901 93.5547L262.15 93.5404ZM265.614 94.0287L265.365 94.043C264.742 94.0788 264.127 94.239 264.068 94.3049C264.009 94.3707 264.449 94.408 265.258 94.3615C266.005 94.3186 266.558 94.1619 266.555 94.0997C266.551 94.0374 266.112 94.0002 265.614 94.0287ZM266.984 93.9501C266.859 93.9573 266.8 94.0231 266.804 94.0854C266.808 94.1476 266.998 94.1992 267.185 94.1885C267.371 94.1777 267.617 94.1012 267.617 94.1012C267.617 94.1012 267.361 93.9909 267.174 94.0017C267.112 94.0052 267.108 93.943 267.046 93.9466L266.984 93.9501ZM253.85 94.7664L253.787 94.77C253.663 94.7771 253.545 94.9088 253.553 95.0333C253.56 95.1578 253.75 95.2094 253.875 95.2022C253.999 95.1951 254.117 95.0634 254.109 94.9389C254.106 94.8766 253.974 94.7592 253.85 94.7664ZM249.308 95.0895L249.059 95.1038C248.934 95.1109 248.817 95.2426 248.755 95.2462C248.572 95.3192 248.696 95.312 249.066 95.2283C249.436 95.1446 249.619 95.0716 249.433 95.0824L249.308 95.0895ZM252.304 95.0425C252.304 95.0425 252.245 95.1083 252.249 95.1706C252.252 95.2329 252.197 95.361 252.01 95.3717C251.824 95.3824 251.699 95.3896 251.824 95.3824C251.948 95.3753 252.014 95.4339 251.955 95.4998C251.897 95.5656 252.204 95.4855 252.637 95.3982C253.069 95.3109 253.252 95.238 253.065 95.2487C252.878 95.2594 252.56 95.1527 252.432 95.0976C252.366 95.0389 252.304 95.0425 252.304 95.0425ZM246.908 95.727C247.033 95.7198 247.099 95.7785 247.099 95.7785C247.165 95.8372 246.86 95.9796 246.369 96.1327C245.754 96.293 245.505 96.3073 245.56 96.1792C245.615 96.0511 245.919 95.9087 246.289 95.825L246.473 95.752L246.908 95.727ZM250.644 95.5126L250.457 95.5233C249.963 95.6141 249.904 95.68 250.219 95.7244C250.721 95.758 250.724 95.8203 250.9 95.6228C250.959 95.557 250.831 95.5018 250.644 95.5126ZM244.622 96.1705L244.373 96.1848C244.311 96.1884 244.19 96.2578 244.128 96.2613C243.941 96.2721 243.945 96.3343 244.069 96.3272L244.135 96.3859C244.322 96.3752 244.325 96.4374 244.205 96.5068L244.084 96.5762C243.9 96.6492 243.904 96.7115 244.091 96.7008C244.091 96.7008 244.149 96.6349 244.212 96.6314C244.336 96.6242 244.395 96.5584 244.454 96.4925C244.512 96.4267 244.758 96.3501 244.82 96.3466C244.945 96.3394 245.003 96.2736 245 96.2113C244.996 96.1491 244.809 96.1598 244.622 96.1705ZM246.263 96.4512C246.325 96.4476 246.391 96.5063 246.329 96.5099C246.208 96.5793 245.717 96.7324 245.163 96.8891C244.918 96.9656 244.614 97.108 244.24 97.1295C243.497 97.2346 242.878 97.3326 242.936 97.2668C242.999 97.2632 243.552 97.1065 244.23 96.9427C244.416 96.9319 244.658 96.7931 244.845 96.7824L245.156 96.7645C245.281 96.7574 245.46 96.6221 245.585 96.615C245.647 96.6114 245.706 96.5456 245.768 96.542C246.014 96.4655 246.201 96.4547 246.263 96.4512ZM241.289 96.8616C241.102 96.8723 240.857 96.9488 240.545 96.9667C239.926 97.0647 239.556 97.1484 239.622 97.2071C239.754 97.3245 241.296 96.9861 241.538 96.8473L241.289 96.8616ZM242.974 96.8273L242.911 96.8309L242.787 96.8381L242.6 96.8488L242.479 96.9182L242.113 97.0642C242.113 97.0642 242.303 97.1157 242.49 97.105L242.614 97.0978C242.863 97.0835 243.105 96.9447 243.102 96.8825C243.102 96.8825 243.036 96.8238 242.974 96.8273ZM241.816 97.3311L241.878 97.3275C241.878 97.3275 241.39 97.5429 240.834 97.6373C240.277 97.7317 239.845 97.819 239.841 97.7567C239.837 97.6945 240.266 97.5449 240.823 97.4505C241.259 97.4255 241.691 97.3382 241.816 97.3311ZM237.091 97.7272L236.966 97.7343L236.779 97.7451C236.596 97.818 236.42 98.0155 236.42 98.0155L236.794 97.9941C236.98 97.9834 237.222 97.8446 237.219 97.7823C237.219 97.7823 237.153 97.7236 237.091 97.7272ZM239.471 97.8405L239.596 97.8333C239.606 98.0201 238.822 98.5024 238.448 98.5238L238.012 98.5488C237.95 98.5524 237.884 98.4937 237.884 98.4937C237.822 98.4973 237.881 98.4315 238.005 98.4243C238.13 98.4172 238.251 98.3478 238.434 98.2748C239.108 98.0487 239.174 98.1074 238.119 98.2304L237.995 98.2375C237.313 98.3391 237.009 98.4815 237.016 98.606C235.396 99.761 234.045 99.0889 235.591 98.8127C236.273 98.7112 236.76 98.4958 236.694 98.4371C236.628 98.3784 237.182 98.2217 237.984 98.0507L238.046 98.0472C238.665 97.9492 239.222 97.8547 239.471 97.8405ZM236.054 98.1615L235.929 98.1687C235.867 98.1722 235.684 98.2452 235.621 98.2488C235.438 98.3218 235.5 98.3182 235.812 98.3003C236.061 98.286 236.178 98.1544 236.116 98.1579L236.054 98.1615ZM240.108 98.0538L240.046 98.0573C239.859 98.0681 239.617 98.2069 239.621 98.2691C239.624 98.3314 239.752 98.3865 239.877 98.3794C240.001 98.3722 240.243 98.2334 240.302 98.1676C240.361 98.1017 240.295 98.043 240.108 98.0538ZM259.091 69.5408C258.032 69.6015 256.805 69.9843 255.492 71.0592C250.477 75.0951 249.665 81.6384 251.345 84.7903C252.186 86.3662 254.187 87.5007 255.865 87.342C260.952 86.7376 266.237 81.9367 269.827 78.1074C269.765 78.111 269.23 78.579 268.687 78.9225C267.682 79.9172 267.206 80.3193 266.722 80.597C266.055 80.9476 267.782 79.4742 267.961 79.3389C268.973 78.4688 268.801 78.7285 270.635 76.9367C271.149 76.0951 275.828 71.6412 269.58 77.0597C278.378 68.184 263.625 82.149 267.934 77.7788C272.192 73.5989 269.178 76.583 266.376 78.9302C262.688 82.1403 262.746 82.0745 263.337 81.4784C264.455 80.2898 265.343 79.4268 266.051 78.699C263.319 81.1671 258.428 85.1959 255.809 85.2837C253.311 85.3021 253.426 81.8598 254.41 80.4915C254.41 80.4915 257.067 81.0886 259.341 79.334C261.793 77.4441 263.132 75.7431 263.465 73.9124C263.639 72.5906 262.222 69.6734 259.527 69.5158L259.091 69.5408ZM266.051 78.699C269.124 75.6491 268.306 76.633 266.051 78.699V78.699ZM259.878 72.3692L260.065 72.3584C261.246 73.3526 256.567 77.8065 255.549 77.4901C254.722 77.2253 258.446 72.4514 259.878 72.3692ZM252.598 77.2222C252.598 77.2222 251.611 80.7146 251.642 82.337C251.728 83.8313 252.671 85.0265 253.069 85.4409C252.674 85.0888 251.621 84.1498 251.455 82.3477C251.209 80.2379 252.598 77.2222 252.598 77.2222ZM262.321 82.2863C262.702 82.3894 257.247 86.3881 257.383 85.5057C257.519 85.6853 261.32 83.3433 262.321 82.2863ZM272.338 73.0284C269.994 75.7241 267.664 80.8552 271.638 83.6881C275.614 86.5833 279.905 79.7154 280.353 78.8151C284.132 71.7268 282.809 80.2359 282.004 84.7174C278.221 87.3707 273.294 90.7769 274.914 89.622C271.076 92.4034 267.421 95.1119 263.835 97.9414C260.37 100.701 257.953 103.214 256.079 105.383C254.322 107.42 253.4 108.785 253.456 108.657C253.452 108.595 253.28 108.854 252.879 109.502C252.531 109.959 252.076 110.735 251.569 111.701C250.721 113.249 249.211 116.334 248.741 120.109C248.396 122.815 248.817 125.79 250.344 128.45C251.86 130.925 254.25 132.287 256.585 132.715C259.61 133.166 262.299 132.137 262.299 132.137C262.545 132.061 263.776 131.74 265.161 130.848C270.261 127.182 273.412 123.316 276.053 118.167C279.655 111.276 281.848 103.779 283.231 97.3904C284.175 93.1509 284.858 88.7389 285.299 85.5277C285.42 85.4583 285.599 85.3231 285.779 85.1878C287.341 84.0987 286.017 84.9868 285.295 85.4655C285.284 85.2787 285.395 85.0225 285.384 84.8357C285.626 84.6969 285.805 84.5616 285.985 84.4264C286.528 84.0829 286.407 84.1523 285.384 84.8357L285.37 84.5867C291.561 80.3583 294.813 78.2352 295.994 77.043C296.584 76.4469 294.142 78.5235 287.57 82.6488C287.324 82.7254 287.02 82.8678 286.844 83.0653C286.668 83.2628 286.309 83.5333 285.466 84.0814C285.462 84.0191 285.514 83.8288 285.51 83.7665C286.654 83.0137 293.014 78.4633 293.256 78.3245C294.337 77.5753 297.347 75.591 292.413 78.8726C291.749 79.2855 285.928 83.4302 285.506 83.7042C285.499 83.5797 285.554 83.4516 285.547 83.3271C286.929 82.3732 287.23 82.1686 285.665 83.1954C285.602 83.199 285.606 83.2613 285.544 83.2648C285.592 83.0122 285.65 82.9464 285.64 82.7596C288.891 80.6365 291.417 78.9298 292.021 78.5828C302.843 71.2151 293.03 77.6503 289.481 80.0404C287.858 81.1331 287.498 81.4035 288.759 80.5191C289.06 80.3144 288.51 80.5334 285.622 82.4483C285.618 82.386 285.677 82.3202 285.677 82.3202C286.219 81.9767 286.399 81.8414 286.212 81.8522C286.088 81.8593 285.908 81.9946 285.725 82.0675C286.371 78.0949 285.766 74.0693 285.397 73.0909C284.868 71.4971 282.74 69.2455 281.554 71.4375C281.213 72.0193 280.871 72.6011 280.537 73.3074C279.668 71.2333 279.079 70.7674 277.761 70.6557C275.374 70.4179 273.629 71.58 272.338 73.0284ZM278.2 73.9413C279.071 73.8913 279.858 74.5333 279.858 74.5333C279.858 74.5333 276.491 80.0987 273.736 81.069C271.71 81.685 274.145 74.0491 278.2 73.9413ZM280.384 75.0028C278.757 78.2196 276.538 80.9082 274.248 81.2894C276.63 80.3406 277.496 79.104 280.384 75.0028ZM293.081 77.46C292.418 77.8729 291.876 78.2163 291.212 78.6292C291.029 78.7022 290.849 78.8374 290.728 78.9069C289.764 79.5244 289.467 79.7913 289.771 79.6489C289.955 79.5759 290.196 79.4371 290.497 79.2325C290.798 79.0278 291.219 78.7537 291.699 78.4138C292.18 78.0739 292.601 77.7999 293.081 77.46ZM292.74 78.0418L292.498 78.1806C292.319 78.3158 292.08 78.5169 291.838 78.6557L291.234 79.0028C290.929 79.1452 291.234 79.0028 291.956 78.5241C292.377 78.25 292.74 78.0418 292.74 78.0418ZM288.683 80.2736C288.683 80.2736 288.316 80.4196 287.895 80.6936C287.173 81.1724 286.872 81.377 287.176 81.2346C287.297 81.1652 287.598 80.9606 287.84 80.8217C288.082 80.6829 288.32 80.4818 288.5 80.3466C288.621 80.2772 288.683 80.2736 288.683 80.2736ZM288.722 80.9585C288.722 80.9585 288.48 81.0973 288.059 81.3714C287.457 81.7807 287.274 81.8537 287.578 81.7113C287.699 81.6419 287.945 81.5653 288.124 81.4301C288.304 81.2948 288.48 81.0973 288.601 81.0279C288.66 80.9621 288.722 80.9585 288.722 80.9585ZM286.206 83.914C285.964 84.0528 285.667 84.3197 285.425 84.4586C285.421 84.3963 285.48 84.3305 285.476 84.2682C287.525 82.9637 288.838 81.8889 289.021 81.8159C289.204 81.7429 288.313 82.5437 286.206 83.914ZM284.114 86.6577C284.111 86.5954 284.017 88.225 283.976 88.6021C282.819 98.9133 281.487 100.739 279.88 105.391C280.079 104.505 281.072 101.137 281.705 99.1022C282.366 97.565 284.07 86.9726 284.114 86.6577ZM287.737 83.3888C287.737 83.3888 287.437 83.5935 287.015 83.8675C286.293 84.3463 285.992 84.5509 286.296 84.4085C286.417 84.3391 286.597 84.2039 286.839 84.065C287.081 83.9262 287.381 83.7216 287.561 83.5863C287.682 83.5169 287.737 83.3888 287.737 83.3888ZM281.634 84.8011C281.634 84.8011 281.396 85.0021 281.154 85.141C280.732 85.415 280.494 85.6161 280.615 85.5467C280.677 85.5431 280.857 85.4079 280.978 85.3385C281.098 85.2691 281.337 85.068 281.458 84.9986C281.579 84.9292 281.634 84.8011 281.634 84.8011ZM282.011 84.8419L282.015 84.9041C279.669 86.4756 278.107 87.5647 280.629 85.7957C281.289 85.3206 281.469 85.1854 282.011 84.8419ZM281.967 85.1568C281.926 85.5339 281.816 85.7901 281.768 86.0427C281.287 86.3826 281.408 86.3132 281.771 86.105C281.775 86.1673 281.716 86.2331 281.72 86.2954C281.298 86.5694 281.357 86.5036 281.72 86.2954L281.734 86.5444C281.613 86.6138 281.433 86.7491 281.312 86.8185C279.692 87.9734 279.208 88.2511 280.037 87.4539C280.334 87.187 280.213 87.2564 279.494 87.7974C278.893 88.2067 278.714 88.3419 278.952 88.1408C279.19 87.9398 278.527 88.3526 277.266 89.2371C275.887 90.2532 270.898 93.663 265.516 97.8449C265.157 98.1154 264.801 98.4482 264.442 98.7186C261.993 100.671 260.093 102.404 258.56 103.991C257.144 105.447 256.216 106.687 256.099 106.819C255.688 107.279 255.574 107.473 255.743 107.151C255.798 107.023 256.664 105.787 258.135 104.203C259.661 102.491 261.74 100.623 264.307 98.539C267.892 95.7095 271.544 92.9388 275.085 90.4242C277.846 88.4542 280.129 86.8864 280.129 86.8864C280.129 86.8864 278.561 87.851 276.702 89.207C274.422 90.8371 273.465 91.5792 273.879 91.1806C274.238 90.9101 275.676 89.8281 277.296 88.6732C278.858 87.5841 280.056 86.7032 279.935 86.7726C279.268 87.1232 274.462 90.46 273.81 91.0596C273.392 91.396 273.216 91.5935 273.029 91.6042C272.842 91.6149 272.725 91.7466 272.252 92.211C271.775 92.6132 271.716 92.679 271.892 92.4815C272.068 92.284 271.526 92.6275 269.191 94.3857C267.035 96.0086 266.617 96.345 267.038 96.0709C267.698 95.5957 266.745 96.4001 264.714 98.0159L264.237 98.418C262.683 99.6317 261.674 100.564 262.503 99.7669C261.201 101.029 264.81 97.5106 260.893 101.109C260.061 101.844 259.232 102.641 258.466 103.434C259.17 102.644 259.878 101.917 260.648 101.185C261.18 100.655 262.43 99.5837 264.102 98.2384C268.52 94.674 273.792 90.7483 280.104 86.4505C280.768 86.0377 281.365 85.5661 281.967 85.1568ZM278.555 86.6644C278.555 86.6644 278.309 86.741 278.071 86.942C277.65 87.2161 277.477 87.4759 277.598 87.4065C277.66 87.4029 277.774 87.209 277.895 87.1396C278.016 87.0701 278.254 86.8691 278.375 86.7996C278.496 86.7302 278.555 86.6644 278.555 86.6644ZM281.983 86.5301C281.921 86.5337 281.924 86.596 281.862 86.5995C281.866 86.6618 281.748 86.7935 281.752 86.8557C281.814 86.8522 281.931 86.7205 281.994 86.7169L281.983 86.5301ZM281.862 86.5995C281.866 86.6618 281.748 86.7935 281.752 86.8557C280.729 87.5391 279.71 88.2848 278.808 88.8987C276.524 90.4666 275.626 91.1428 276.462 90.4701C276.642 90.3349 275.674 90.8902 272.14 93.5293C270.343 94.8817 268.609 96.2306 267.352 97.1773C266.747 97.5244 264.159 99.2346 272.672 92.999C276.088 90.4916 279.212 88.3133 281.8 86.6031L281.862 86.5995ZM281.942 86.9073C281.946 86.9695 281.832 87.1635 281.835 87.2257C278.511 102.221 276.728 109.258 271.662 117.857C271.093 118.826 270.631 119.478 270.462 119.8C270.344 119.931 270.351 120.056 270.351 120.056L270.528 119.858C270.641 119.664 270.873 119.339 271.104 119.013C271.507 118.428 270.994 119.269 270.59 119.855C268.637 122.84 266.007 125.99 263.232 127.711C259.899 130.588 256.565 131.279 254.578 130.394C252.078 129.288 251.446 125.889 251.987 121.172C251.977 120.986 252.025 120.733 252.069 120.418C252.273 118.532 252.892 116.248 254.416 113.412C254.867 112.574 255.26 111.802 255.664 111.216C256.864 109.273 258.148 107.7 258.383 107.437C258.853 106.91 258.845 106.786 258.845 106.786C258.845 106.786 257.485 108.113 255.536 111.161C255.426 111.417 255.253 111.677 255.081 111.937C253.432 114.78 252.737 116.819 252.428 117.961C252.17 118.913 252.023 119.609 252.101 118.792C252.056 119.107 252.172 117.851 251.957 119.55C251.909 119.803 251.861 120.055 251.816 120.37C251.483 125.449 251.229 126.463 251.377 120.333C251.489 119.015 251.85 117.682 252.394 116.277C253.147 114.172 254.165 112.302 255.082 110.875C257.145 107.633 259.565 105.183 260.508 104.192C261.689 103 262.166 102.597 262.221 102.469C262.393 102.209 262.569 102.012 262.811 101.873C262.991 101.738 264.245 100.729 265.381 99.8516C266.397 99.0437 267.171 98.3746 267.171 98.3746C267.171 98.3746 266.808 98.5829 266.449 98.8533C266.269 98.9886 265.854 99.3872 265.316 99.7929C264.777 100.199 264.117 100.674 263.46 101.211C261.792 102.619 261.143 103.281 261.029 103.475C260.915 103.669 260.563 104.064 260.149 104.462C259.555 104.996 259.434 105.065 260.138 104.275C260.545 103.752 260.901 103.42 259.896 104.414C259.13 105.208 260.127 104.089 260.894 103.295C261.605 102.63 262.078 102.165 261.605 102.63C261.367 102.831 260.003 104.096 258.415 105.811C257.182 107.194 256.305 108.243 255.96 108.763C256.481 108.046 258.045 105.895 260.586 103.375C262.42 101.583 264.213 100.169 265.049 99.4959C266.721 98.1506 266.658 98.1542 265.045 99.4336C264.447 99.9052 263.553 100.644 262.541 101.514C259.688 104.051 257.582 106.546 257.461 106.615C257.461 106.615 257.575 106.422 258.632 105.236C259.571 104.183 261.57 102.007 264.976 99.3127C268.561 96.4832 273.525 92.6376 280.919 87.5907C281.22 87.386 281.642 87.1119 281.942 86.9073ZM281.535 87.4304L281.538 87.4927L281.373 87.877L281.38 88.0015C281.322 88.0673 281.201 88.1367 281.08 88.2061C280.237 88.7543 279.155 89.5035 278.554 89.9128C278.015 90.3185 277.055 90.9983 276.45 91.3454C275.665 91.8277 275.544 91.8971 277.168 90.8044C278.25 90.0552 278.906 89.5178 278.906 89.5178C278.906 89.5178 276.861 90.8845 274.822 92.3758C272.722 93.8707 270.753 95.4829 270.514 95.684C270.397 95.8157 270.929 95.2854 271.889 94.6056C272.971 93.8564 273.576 93.5093 273.458 93.641C273.344 93.8349 274.899 92.6213 277.901 90.5125C279.701 89.2223 280.904 88.4036 281.384 88.0637C281.622 87.8627 281.622 87.8627 281.38 88.0015C281.435 87.8734 281.428 87.7489 281.483 87.6208C281.48 87.5585 281.538 87.4927 281.538 87.4927L281.535 87.4304ZM278.545 88.664C278.607 88.6604 278.49 88.7921 278.009 89.132C277.588 89.406 277.1 89.6214 277.1 89.6214C277.1 89.6214 275.055 90.9882 271.88 93.3568C269.065 95.4549 266.85 97.1437 266.909 97.0778C267.206 96.8109 270.135 94.5189 272.951 92.4208C273.911 91.741 274.751 91.1306 275.473 90.6518C277.394 89.2922 278.296 88.6783 278.482 88.6675L278.545 88.664ZM273.173 90.8463C273.173 90.8463 272.872 91.051 272.033 91.6614C270.772 92.5458 270.475 92.8127 270.896 92.5387C271.138 92.3999 271.494 92.0671 271.853 91.7966C272.212 91.5261 272.634 91.2521 272.934 91.0474C273.114 90.9122 273.173 90.8463 273.173 90.8463ZM277.033 90.6248C277.033 90.6248 276.736 90.8917 276.135 91.301C275.174 91.9808 274.812 92.189 275.174 91.9808C275.354 91.8456 275.655 91.6409 275.955 91.4362C276.256 91.2316 276.615 90.9611 276.853 90.76C276.974 90.6906 277.033 90.6248 277.033 90.6248ZM282.258 91.3244C282.258 91.3244 279.914 101.641 279.642 102.344C279.37 103.047 279.317 102.113 279.713 101.403C280.11 100.693 282.258 91.3244 282.258 91.3244ZM282.476 92.9361C282.476 92.9361 281.52 98.0508 281.034 99.3905C281.42 98.4938 280.777 100.342 280.84 99.2767C280.897 98.0866 281.505 97.8018 281.584 96.9852C281.662 96.1687 282.476 92.9361 282.476 92.9361ZM270.217 93.7646C270.217 93.7646 270.158 93.8304 270.037 93.8998C269.858 94.0351 269.623 94.2984 269.381 94.4372L268.776 94.7843C268.534 94.9231 268.838 94.7807 269.495 94.2433C269.913 93.907 270.217 93.7646 270.217 93.7646ZM271.923 94.1039L270.306 95.3211C269.408 95.9974 268.99 96.3337 269.291 96.129C269.771 95.7891 269.712 95.855 269.298 96.2536C269.001 96.5205 269.004 96.5827 269.125 96.5133C269.367 96.3745 270.075 95.6467 270.79 95.0435C271.146 94.7107 271.567 94.4367 271.923 94.1039ZM266.277 95.8647C266.277 95.8647 266.215 95.8683 266.156 95.9341C266.039 96.0658 265.797 96.2046 265.617 96.3399C265.437 96.4751 265.261 96.6726 265.14 96.742C264.902 96.9431 265.078 96.7456 265.617 96.3399C265.976 96.0694 266.277 95.8647 266.277 95.8647ZM270.104 96.1448L269.205 96.8211C268.366 97.4315 268.128 97.6326 268.487 97.3621C268.666 97.2268 269.029 97.0186 269.268 96.8175C269.506 96.6164 269.744 96.4153 269.924 96.2801C270.045 96.2107 270.104 96.1448 270.104 96.1448ZM282.439 97.7482C282.676 98.6092 279.112 109.433 278.522 110.029C278.063 110.743 282.545 98.4918 282.439 97.7482ZM263.682 99.6368C263.682 99.6368 261.475 101.45 258.999 104.028C256.524 106.607 254.968 108.882 255.023 108.754C255.078 108.626 255.768 107.587 256.879 106.274C258.05 104.895 259.282 103.512 260.705 102.181C262.308 100.715 263.682 99.6368 263.682 99.6368ZM264.876 99.7557C264.876 99.7557 264.696 99.8909 264.458 100.092C264.04 100.428 263.864 100.626 263.985 100.556C264.047 100.553 264.161 100.359 264.282 100.29C264.403 100.22 264.583 100.085 264.7 99.9532C264.821 99.8838 264.876 99.7557 264.876 99.7557ZM263.631 99.8271C263.631 99.8271 263.576 99.9552 263.455 100.025C263.337 100.156 263.158 100.292 263.037 100.361C262.916 100.43 262.802 100.624 262.74 100.628C262.619 100.697 262.795 100.5 263.213 100.163C263.513 99.9588 263.631 99.8271 263.631 99.8271ZM280.928 99.709C280.928 99.709 280.869 99.7748 280.873 99.8371C280.873 99.8371 280.5 102.045 279.883 103.267C279.515 104.475 280.869 99.7748 280.928 99.709ZM258.834 102.226C258.834 102.226 258.65 102.299 258.416 102.563C258.001 102.961 257.825 103.159 257.946 103.089C258.005 103.024 258.126 102.954 258.243 102.822L258.654 102.362C258.771 102.23 258.834 102.226 258.834 102.226ZM280.197 101.125C280.197 101.125 278.96 105.694 277.376 109.658C274.755 116.242 273.116 118.148 272.708 118.671C276.596 112.389 278.064 107.494 280.197 101.125ZM259.96 103.349C259.96 103.349 259.905 103.477 259.846 103.543C259.729 103.674 259.549 103.809 259.432 103.941C259.314 104.073 259.193 104.142 259.135 104.208C259.014 104.277 259.256 104.139 259.608 103.744L259.96 103.349ZM260.786 104.676C260.786 104.676 260.665 104.745 260.547 104.877C260.371 105.074 260.078 105.403 259.671 105.926C258.97 106.779 259.322 106.384 259.971 105.722C260.503 105.192 260.848 104.672 260.848 104.672L260.786 104.676ZM280.018 103.447C280.605 102.788 277.056 112.8 275.387 115.269C274.773 116.554 280.091 103.63 280.018 103.447ZM257.954 107.587L257.602 107.982C257.25 108.377 257.136 108.571 257.257 108.501C257.316 108.435 257.371 108.307 257.488 108.176L257.841 107.781C257.896 107.652 257.954 107.587 257.954 107.587ZM255.998 108.324C255.998 108.324 255.895 108.704 255.663 109.03L255.487 109.227C255.373 109.421 255.194 109.557 255.194 109.557C255.194 109.557 255.304 109.3 255.535 108.975L255.998 108.324ZM256.637 109.661C256.637 109.661 256.578 109.727 256.523 109.855C256.468 109.983 256.292 110.181 256.237 110.309C256.181 110.437 256.064 110.569 256.005 110.634C255.947 110.7 256.057 110.444 256.347 110.053C256.519 109.793 256.637 109.661 256.637 109.661ZM255.635 110.718C255.635 110.718 255.58 110.846 255.408 111.106L255.349 111.172C255.063 111.626 255.011 111.816 255.066 111.688C255.125 111.622 255.242 111.49 255.297 111.362C255.356 111.296 255.411 111.168 255.47 111.102C255.466 111.04 255.587 110.971 255.584 110.909C255.639 110.78 255.635 110.718 255.635 110.718ZM256.214 110.997C256.214 110.997 256.158 111.125 255.927 111.451C255.872 111.579 255.758 111.773 255.645 111.967C254.503 113.844 255.303 112.549 255.244 112.615C255.362 112.483 255.479 112.351 255.593 112.157C255.765 111.898 255.879 111.704 255.99 111.447C256.048 111.382 256.107 111.316 256.103 111.254C256.162 111.188 256.214 110.997 256.214 110.997ZM253.855 111.258C253.855 111.258 253.741 111.452 253.458 111.968C253.231 112.355 253.01 112.868 252.79 113.38C252.569 113.893 252.279 114.284 252.114 114.668C251.445 116.081 252.448 113.962 252.841 113.19C252.955 112.996 253.855 111.258 253.855 111.258ZM254.122 111.555C254.122 111.555 254.125 111.617 254.07 111.745C254.015 111.873 253.842 112.133 253.787 112.261C253.732 112.389 253.615 112.521 253.556 112.587C253.501 112.715 253.549 112.462 253.835 112.008C254.004 111.686 254.122 111.555 254.122 111.555ZM252.742 113.633C252.742 113.633 252.463 114.211 252.087 115.295C251.819 116.06 251.551 116.825 251.341 117.524C251.131 118.223 251.035 118.728 250.994 119.105C250.85 119.863 250.79 118.805 251.591 116.447C252.125 114.855 252.742 113.633 252.742 113.633ZM253.263 115.102C253.263 115.102 252.981 115.618 252.822 116.127C252.609 116.764 252.406 117.588 252.62 116.951C252.73 116.694 252.778 116.442 252.888 116.186C252.998 115.929 253.105 115.611 253.215 115.355C253.27 115.227 253.263 115.102 253.263 115.102ZM276.433 116.084C276.714 116.63 272.775 123.103 271.833 124.094C271.084 125.199 276.655 116.696 276.433 116.084ZM276.141 115.351C276.141 115.351 273.141 120.77 271.886 122.841C273.28 121.012 274.667 119.059 274.742 118.18C275.206 118.653 273.177 121.393 271.365 123.558C271.306 123.624 271.192 123.818 271.133 123.884C271.075 123.95 272.11 122.391 272.106 122.329C271.754 122.724 269.565 124.849 269.271 125.178C269.561 124.786 270.39 123.989 270.801 123.528C271.974 122.212 276.141 115.351 276.141 115.351ZM250.573 121.566L250.595 121.939C250.62 122.375 250.714 122.932 250.75 123.555C250.786 124.177 250.939 124.668 251.026 125.101C251.263 125.961 250.912 125.294 250.688 123.558C250.55 122.254 250.573 121.566 250.573 121.566ZM272.508 122.806C272.702 122.919 266.845 128.628 266.04 128.737C266.744 127.947 272.505 122.743 272.508 122.806ZM267.675 124.582C267.019 125.12 267.261 124.981 266.605 125.518C265.354 126.59 261.457 129.437 260.016 130.457C257.103 131.936 263.967 128.543 267.62 124.71C267.679 124.645 267.675 124.582 267.675 124.582ZM304.977 68.469C302.487 68.6119 299.687 69.897 298.047 71.8027C294.833 75.6728 294.196 80.8942 296.721 82.4359C301.639 85.402 305.899 76.9117 307.116 76.3422C306.666 78.3045 305.971 80.3434 305.946 82.0939C305.92 84.9064 309.116 86.1598 310.941 85.3054C314.715 83.5896 317.349 80.5024 320.492 77.5735C321.203 76.9079 322.098 76.1695 322.868 75.4381C322.865 75.3758 322.923 75.31 322.982 75.2442C323.041 75.1783 323.162 75.1089 323.22 75.0431C323.279 74.9772 323.459 74.842 323.517 74.7762C323.635 74.6445 323.814 74.5092 323.932 74.3776C323.925 74.253 323.976 74.0627 324.093 73.931C324.152 73.8652 324.273 73.7958 324.332 73.7299L324.39 73.6641C324.449 73.5983 324.629 73.463 324.688 73.3972C326.096 71.8171 325.267 72.6143 325.502 72.3509C325.326 72.5484 324.912 72.947 324.321 73.5431C322.84 74.94 321.292 76.2782 320.221 77.2142C319.866 77.5469 319.631 77.8103 319.51 77.8797C319.33 78.0149 319.033 78.2818 318.854 78.4171C319.03 78.2196 319.33 78.0149 319.506 77.8174C319.98 77.353 319.972 77.2285 319.793 77.3637C319.786 77.2392 320.086 77.0345 320.325 76.8334C321.975 75.1146 322.957 74.8083 324.758 72.4561C324.758 72.4561 323.508 73.5273 322.921 74.1857C322.158 75.0416 319.467 77.1325 320.168 76.2802C321.466 74.9563 322.654 73.8887 323.01 73.5559C324.319 72.4188 325.089 71.6875 325.573 71.4098C325.573 71.4098 322.515 73.6468 321.624 74.4475C321.096 75.0401 314.204 80.1207 316.598 78.2967C316.429 78.6187 318.494 76.5012 317.951 76.8447C314.711 79.1546 312.895 81.2578 309.439 83.0803C308.468 83.5733 311.376 75.473 311.495 74.2793C311.621 73.2101 310.761 72.3848 309.762 72.3798C309.817 72.2517 309.865 71.999 309.854 71.8122C309.583 69.2666 307.468 68.3261 304.977 68.469ZM305.892 71.3525C306.764 71.3024 307.653 71.5637 308.506 72.2644C308.575 72.3854 308.769 72.4992 308.897 72.5543C304.724 73.8558 302 78.6348 298.899 80.1245C296.866 80.616 301.157 71.5618 305.892 71.3525ZM306.701 74.5544C304.456 76.8071 301.338 80.172 299.433 80.7186C301.804 79.583 304.168 76.1365 306.701 74.5544ZM310.191 74.4166C310.436 74.34 309.242 77.4695 308.84 79.1792C308.542 80.5082 308.309 81.8958 308.345 82.5184C307.953 80.0422 309.133 76.6637 310.191 74.4166ZM322.868 75.4381L322.872 75.5004C322.809 75.5039 322.692 75.6356 322.633 75.7014L322.575 75.7673L322.512 75.7709L322.454 75.8367L322.395 75.9025C322.336 75.9684 322.274 75.9719 322.333 75.9061C322.391 75.8403 322.512 75.7709 322.571 75.705C322.63 75.6392 322.813 75.5662 322.872 75.5004L322.868 75.4381ZM319.556 76.5027C319.556 76.5027 319.2 76.8355 318.786 77.2341C318.074 77.8996 315.383 79.9906 315.321 79.9941L318.181 77.5811C318.834 76.9815 319.494 76.5063 319.556 76.5027ZM322.252 74.5364C319.872 79.8579 321.858 86.1781 328.14 85.6927C329.696 85.6033 332.146 85.8375 339.849 77.462C339.845 77.3998 339.904 77.3339 339.966 77.3303C340.277 77.3125 341.085 76.1417 340.612 76.6061C340.553 76.672 340.318 76.9353 340.08 77.1364C339.721 77.4069 339.603 77.5386 339.607 77.6008C339.61 77.6631 339.555 77.7912 339.434 77.8606C339.313 77.93 339.248 77.8713 339.365 77.7397C339.482 77.608 339.482 77.608 339.303 77.7432C339.182 77.8126 339.299 77.681 339.475 77.4835C339.827 77.0884 339.651 77.2859 338.94 77.9515C338.881 78.0173 338.819 78.0209 338.76 78.0867C338.049 78.7522 338.225 78.5547 338.698 78.0903C338.878 77.955 339.112 77.6917 339.347 77.4283C341.588 75.1133 339.758 76.9675 339.699 77.0333C339.167 77.5636 338.691 77.9658 338.628 77.9693C341.513 75.9922 341.451 73.8094 344.014 71.6633C344.197 71.5903 344.131 71.5317 343.959 71.7914C343.841 71.9231 343.661 72.0583 343.599 72.0619C343.485 72.2559 343.372 72.4498 343.192 72.585C343.012 72.7203 342.781 73.0459 342.667 73.2398C342.045 73.2756 340.64 74.9179 339.752 75.7809C338.982 76.5123 338.388 77.0461 338.032 77.3789L337.915 77.5105C337.856 77.5764 337.794 77.5799 337.79 77.5177L337.967 77.3202C338.557 76.7241 340.09 75.1368 341.271 73.9446C341.744 73.4802 342.093 73.0229 342.093 73.0229C342.144 72.8326 340.981 74.3361 341.029 74.0835C341.315 73.6298 341.733 73.2934 341.961 72.9056C341.836 72.9127 341.015 73.8344 340.96 73.9625C340.967 74.087 340.905 74.0906 340.842 74.0942C340.78 74.0978 340.721 74.1636 340.666 74.2917C340.673 74.4162 340.611 74.4198 340.608 74.3575C340.604 74.2953 340.483 74.3647 340.131 74.7597C339.775 75.0924 339.658 75.2241 339.779 75.1547C339.9 75.0853 339.724 75.2828 339.372 75.6778C339.019 76.0728 338.961 76.1387 339.016 76.0106C339.133 75.8789 339.009 75.8861 338.653 76.2188C338.536 76.3505 338.297 76.5516 338.18 76.6832L338.591 76.2224C338.884 75.8932 340.062 74.6387 341.239 73.3843C342.416 72.1298 343.531 70.8789 343.77 70.6778C343.22 70.8968 343.186 71.3985 343.168 71.0871C343.282 70.8932 342.927 71.226 342.343 71.9466C341.643 72.7989 341.58 72.8025 341.811 72.4769C342.743 71.2989 341.922 72.2207 340.865 73.4057C339.633 74.7883 338.327 75.9876 337.436 76.7884C334.815 79.0003 328.332 84.6822 325.642 83.5247C321.155 81.5334 326.788 70.8404 331.404 69.6384C332.804 68.9959 333.667 69.8834 333.401 68.5243C333.051 67.8573 332.399 67.3949 330.099 67.5894C326.154 68.503 323.696 71.3926 322.252 74.5364ZM328.179 84.1912C328.286 86.0591 333.867 80.9912 336.122 78.9253C330.474 84.9965 327.814 85.4615 328.179 84.1912ZM341.012 75.9585C341.074 75.9549 341.188 75.761 341.239 75.5706C341.298 75.5048 341.287 75.318 341.346 75.2522C341.287 75.318 341.174 75.5119 341.115 75.5778C340.998 75.7094 340.88 75.8411 340.942 75.8375C341.001 75.7717 341.063 75.7681 341.008 75.8962L341.012 75.9585ZM340.124 76.8215L340.066 76.8874C340.066 76.8874 340.062 76.8251 340.121 76.7593C340.179 76.6934 340.242 76.6898 340.183 76.7557L340.124 76.8215ZM337.755 79.0814L337.81 78.9533C337.869 78.8875 337.807 78.891 337.748 78.9569L337.631 79.0885L337.755 79.0814ZM338.159 78.496L338.034 78.5032L338.152 78.3715L338.211 78.3057C338.211 78.3057 338.214 78.3679 338.155 78.4338L338.159 78.496ZM336.733 79.7648C336.612 79.8342 336.494 79.9659 336.432 79.9694C336.311 80.0388 336.491 79.9036 336.846 79.5708C337.382 79.1028 337.437 78.9747 337.026 79.4356C336.909 79.5673 336.854 79.6954 336.733 79.7648ZM335.713 80.5104C335.655 80.5763 335.534 80.6457 335.475 80.7115C335.292 80.7845 335.409 80.6528 335.648 80.4517C335.886 80.2506 336.069 80.1777 335.952 80.3093C335.893 80.3752 335.772 80.4446 335.713 80.5104ZM341.207 75.0103C340.738 75.537 340.206 76.0672 340.085 76.1366C339.905 76.2719 340.257 75.8769 341.259 74.8199C344.471 72.0119 341.028 75.1455 341.207 75.0103ZM337.254 79.0477C337.195 79.1136 337.14 79.2417 337.078 79.2452C336.957 79.3146 337.074 79.183 337.312 78.9819C337.551 78.7808 337.609 78.715 337.492 78.8466C337.433 78.9125 337.312 78.9819 337.254 79.0477ZM338.904 77.3288L338.963 77.263C339.021 77.1972 338.959 77.2007 338.9 77.2666C338.842 77.3324 338.845 77.3947 338.845 77.3947L338.904 77.3288ZM341.01 74.8342C340.54 75.3609 340.122 75.6972 340.122 75.6972C341.486 74.432 343.071 72.6544 341.01 74.8342ZM339.546 76.5424L339.601 76.4143C339.66 76.3484 339.601 76.4143 339.543 76.4801C339.484 76.5459 339.422 76.5495 339.422 76.5495L339.546 76.5424ZM338.648 77.2186C338.53 77.3503 338.351 77.4855 338.233 77.6172C337.936 77.8841 337.757 78.0194 337.757 78.0194L338.168 77.5585C338.699 77.0282 339.532 76.2933 339.532 76.2933C339.532 76.2933 339.121 76.7542 338.648 77.2186ZM342.829 72.7933C342.594 73.0566 342.473 73.126 342.649 72.9285L342.884 72.6652C342.826 72.731 342.705 72.8004 342.646 72.8662C342.466 73.0015 342.47 73.0638 342.701 72.7381C342.874 72.4784 342.994 72.409 342.939 72.5371C342.943 72.5993 343.06 72.4677 343.409 72.0104C343.875 71.4214 343.992 71.2897 343.589 71.8751C343.357 72.2007 343.064 72.5299 342.829 72.7933ZM343.813 71.425C343.989 71.2275 344.044 71.0994 343.981 71.103C343.919 71.1065 343.743 71.304 343.626 71.4357C343.45 71.6332 343.391 71.6991 343.453 71.6955C343.516 71.6919 343.695 71.5567 343.813 71.425ZM342.921 72.2257C342.921 72.2257 342.918 72.1635 342.977 72.0976C343.208 71.772 343.274 71.8307 343.035 72.0318C342.859 72.2293 342.856 72.1671 342.852 72.1048C342.849 72.0425 342.79 72.1084 342.672 72.24C342.555 72.3717 342.438 72.5034 342.441 72.5657C342.386 72.6938 342.628 72.5549 342.921 72.2257ZM343.908 70.9197C343.967 70.8539 344.026 70.7881 344.022 70.7258C344.081 70.66 344.022 70.7258 343.905 70.8575C343.788 70.9891 343.732 71.1172 343.791 71.0514L343.908 70.9197ZM343.318 71.5158L343.197 71.5853C343.135 71.5888 343.193 71.523 343.252 71.4572C343.311 71.3913 343.37 71.3255 343.373 71.3877L343.318 71.5158ZM342.665 72.1155L342.548 72.2472C342.489 72.313 342.548 72.2472 342.665 72.1155C342.783 71.9838 342.841 71.918 342.783 71.9838L342.665 72.1155ZM340.259 74.8148L340.314 74.6867C340.373 74.6209 340.373 74.6209 340.255 74.7525C340.138 74.8842 340.076 74.8878 340.138 74.8842L340.259 74.8148ZM342.512 71.6246C342.63 71.4929 342.685 71.3648 342.622 71.3684C342.498 71.3755 342.439 71.4413 342.325 71.6353C342.215 71.8915 342.34 71.8843 342.512 71.6246ZM340.334 73.936L340.51 73.7385C340.565 73.6104 340.506 73.6762 340.33 73.8737C340.154 74.0712 340.099 74.1993 340.157 74.1335C340.22 74.1299 340.275 74.0018 340.334 73.936ZM342.919 71.1014L342.975 70.9733C343.033 70.9075 343.033 70.9075 342.916 71.0392C342.798 71.1709 342.74 71.2367 342.802 71.2331L342.919 71.1014ZM341.738 72.2936L341.676 72.2972L341.735 72.2314C341.794 72.1655 341.79 72.1033 341.794 72.1655L341.738 72.2936ZM354.774 70.0463C350.829 73.1462 344.721 85.3657 344.745 81.4288C344.769 77.492 345.736 74.7504 346.328 73.0922C347.567 69.6478 344.655 70.0648 343.625 70.6237C343.079 70.9049 341.931 77.0302 341.743 80.2893C341.533 84.2369 345.702 88.3079 349.364 83.5376C351.697 80.655 355.759 67.616 359.015 72.1142C360.236 73.7932 360.55 77.086 360.501 80.587C358.731 81.3133 330.245 112.87 340.434 122.78C344.092 125.569 348.233 123.707 351.104 121.481C356.244 117.438 362.355 103.094 363.07 87.2486C363.097 83.374 363.129 81.7481 363.05 80.3783C368.203 75.4599 365.837 77.7821 375.892 69.0217C372.637 71.0825 370.876 73.0576 369.079 74.4101C370.253 73.0934 376.82 67.7815 376.699 67.8509C370.591 72.4493 368.999 74.1024 368.343 74.6398L363.055 79.3785L363.016 78.6936C375.374 67.6147 364.814 76.2791 362.907 77.8877C362.811 76.2066 362.266 73.2395 361.093 71.3078C359.715 69.0755 357.344 68.0247 354.774 70.0463ZM375.112 68.5042C374.801 68.5221 369.463 72.3891 369.125 73.0332C369.022 73.4139 371.105 71.6077 371.105 71.6077L375.116 68.5665L375.112 68.5042ZM355.249 70.7062C355.322 70.8894 350.165 78.9939 349.027 80.9332C349.526 79.8426 351.536 75.6669 353.179 73.8234C351.61 74.788 354.703 70.9874 355.249 70.7062ZM352.256 74.0638C352.512 74.1741 349.195 78.4248 349.195 78.4248C349.195 78.4248 351.702 74.2205 352.256 74.0638ZM348.902 78.754C348.902 78.754 346.805 82.4975 346.832 81.8713C346.858 81.2451 346.839 81.9958 348.902 78.754ZM360.293 80.2242C360.231 80.2278 355.387 84.0039 348.782 93.0036C347.689 94.6281 348.411 94.1493 348.98 93.1797C349.439 92.4662 348.841 92.9378 352.521 88.4787C354.505 86.0535 357.378 82.7653 360.293 80.2242ZM360.507 81.7736C351.378 91.4179 344.969 101.656 341.729 108.338C341.726 108.276 341.843 108.144 341.839 108.082C344.561 102.179 344.597 102.801 345.216 100.517C343.868 103.156 341.563 106.536 340.723 110.395C339.62 112.957 339.157 114.67 339.32 115.348C337.191 108.724 357.477 82.3223 360.507 81.7736ZM360.512 82.9602C360.225 94.2834 356.26 109.004 352.477 113.843C348.111 119.404 346.098 121.331 343.732 121.467C340.249 121.729 339.602 118.08 340.491 113.969C340.512 114.343 340.596 114.713 340.617 115.086C340.592 114.65 340.615 113.962 340.697 113.208C340.999 111.941 341.488 110.663 342.042 109.445C342.597 108.226 343.339 106.997 344.014 105.708C343.918 106.214 344.208 105.822 344.528 104.867C344.852 103.974 349.796 96.5061 351.4 93.9778C354.636 89.4193 357.908 85.4834 360.512 82.9602ZM340.617 115.086C340.635 115.397 340.708 115.581 340.77 115.577C340.76 115.39 340.628 115.273 340.617 115.086ZM361.409 83.346C361.409 83.346 360.221 97.4695 359.909 97.4874C359.598 97.5053 359.745 96.8096 360.184 94.6605C360.623 92.5114 361.409 83.346 361.409 83.346ZM347.817 96.8695L347.7 97.0012C347.7 97.0012 345.616 99.8694 345.513 100.25C345.41 100.631 345.762 100.236 346.107 99.7163C346.628 98.9993 347.946 96.9246 347.817 96.8695ZM359.678 97.813C359.685 97.9375 359.732 98.7469 359.47 99.6365C358.553 103.25 356.891 108.03 357.354 107.379C357.412 107.313 359.965 99.5456 360.193 99.1578C356.962 114.71 348.437 121.821 347.519 121.062C349.672 121.563 357.368 109.814 356.708 108.103C356.491 108.678 356.183 108.758 356.727 107.353C357.271 105.947 359.623 97.9411 359.678 97.813ZM356.121 108.762C356.121 108.762 354.343 112.612 353.87 113.076C353.397 113.541 356.121 108.762 356.121 108.762ZM355.044 113.946C355.044 113.946 354.956 114.576 354.563 115.348C354.166 116.058 352.624 118.582 349.892 121.051C347.813 122.919 344.777 123.343 347.646 122.179C351.677 120.573 355.044 113.946 355.044 113.946ZM382.074 78.6618L382.137 78.6582L382.14 78.7204L382.078 78.724L382.074 78.6618ZM380.723 81.238C380.744 81.6116 380.097 81.2115 380.723 81.238V81.238ZM381.621 78.3754L381.565 78.5035C381.569 78.5658 381.517 78.7562 381.521 78.8184C381.525 78.8807 381.407 79.0124 381.411 79.0746C381.356 79.2027 381.297 79.2686 381.242 79.3967L381.187 79.5248L381.19 79.587L381.132 79.6529L381.135 79.7151C381.135 79.7151 381.263 79.7702 381.326 79.7667C381.512 79.756 381.571 79.6901 381.495 79.4446C381.56 79.5033 381.564 79.5656 381.626 79.562C381.626 79.562 381.633 79.6865 381.578 79.8146C381.578 79.8146 381.52 79.8805 381.523 79.9427C381.409 80.1367 381.167 80.2755 381.105 80.2791C381.043 80.2826 381.039 80.2204 381.102 80.2168C381.102 80.2168 381.223 80.1474 381.281 80.0816C381.399 79.9499 381.395 79.8876 381.205 79.8361L381.142 79.8397C381.146 79.9019 381.025 79.9713 381.029 80.0336L380.853 80.2311C380.794 80.2969 380.801 80.4215 380.742 80.4873L380.746 80.5496C380.808 80.546 380.867 80.4802 380.867 80.4802C380.867 80.4802 380.863 80.4179 380.925 80.4143C380.988 80.4107 380.881 80.7292 380.712 81.0512L380.723 81.238L380.847 81.2309L380.913 81.2896C380.913 81.2896 380.906 81.1651 380.844 81.1686C380.778 81.1099 380.782 81.1722 380.844 81.1686C380.906 81.1651 381.031 81.1579 381.023 81.0334C381.02 80.9711 381.137 80.8394 381.137 80.8394C381.137 80.8394 381.321 80.7665 381.434 80.5725C381.548 80.3786 381.776 79.9907 381.941 79.6064C381.996 79.4783 382.114 79.3466 382.11 79.2844C382.22 79.0282 382.213 78.9037 382.147 78.845C382.081 78.7863 381.96 78.8557 381.909 79.046C381.802 79.3645 381.736 79.3058 381.729 79.1813C381.722 79.0568 381.663 79.1226 381.608 79.2507C381.553 79.3788 381.55 79.3165 381.546 79.2543C381.477 79.1333 381.532 79.0052 381.66 79.0603C381.722 79.0568 381.84 78.9251 381.836 78.8628L381.829 78.7383C381.704 78.7455 381.51 78.6316 381.569 78.5658C381.565 78.5035 381.628 78.5 381.756 78.5551C381.887 78.6725 381.887 78.6725 381.818 78.5515C381.752 78.4928 381.624 78.4377 381.624 78.4377L381.621 78.3754ZM381.903 77.8595C381.966 77.8559 381.966 77.8559 381.969 77.9182L381.973 77.9804L381.976 78.0427C381.98 78.105 381.855 78.1121 381.852 78.0498C381.848 77.9876 381.779 77.8666 381.779 77.8666L381.903 77.8595ZM381.367 76.1411C381.367 76.1411 381.371 76.2034 381.433 76.1998C381.624 76.2514 381.818 76.3652 381.887 76.4861C381.963 76.7316 381.974 76.9184 381.912 76.922C381.912 76.922 381.777 76.7423 381.7 76.4968L381.704 76.5591L381.711 76.6836L381.714 76.7459L381.78 76.8046L381.787 76.9291L381.916 76.9842C381.978 76.9806 382.044 77.0393 382.047 77.1016C382.054 77.2261 381.86 77.1123 381.857 77.0501L381.791 76.9914L381.795 77.0536L381.798 77.1159L381.809 77.3027L381.816 77.4272L381.757 77.493L381.764 77.6176C381.896 77.735 382.028 77.8523 382.021 77.7278C382.017 77.6655 382.021 77.7278 382.083 77.7242C382.145 77.7207 382.159 77.9697 382.17 78.1565L382.188 78.4678L382.375 78.4571C382.437 78.4535 382.434 78.3913 382.371 78.3948C382.309 78.3984 382.302 78.2739 382.298 78.2116C382.295 78.1494 382.295 78.1494 382.364 78.2703L382.434 78.3913L382.426 78.2667C382.423 78.2045 382.419 78.1422 382.357 78.1458C382.291 78.0871 382.291 78.0871 382.353 78.0835C382.478 78.0764 382.537 78.0105 382.412 78.0177C382.35 78.0213 382.332 77.7099 382.391 77.6441C382.449 77.5783 382.289 76.9628 382.223 76.9041C382.157 76.8454 382.095 76.849 382.157 76.8454C382.22 76.8418 382.213 76.7173 382.14 76.5341C382.125 76.285 382.403 76.7688 382.41 76.8934C382.497 77.3256 382.577 77.6334 382.577 77.6334L382.588 77.8202C382.595 77.9447 382.602 78.0692 382.668 78.1279C382.734 78.1866 382.738 78.2489 382.741 78.3111C382.745 78.3734 382.745 78.3734 382.679 78.3147C382.613 78.256 382.551 78.2596 382.558 78.3841C382.565 78.5086 382.569 78.5709 382.697 78.626C382.763 78.6847 382.763 78.6847 382.7 78.6883C382.638 78.6919 382.576 78.6954 382.58 78.7577C382.583 78.82 382.59 78.9445 382.652 78.9409C382.718 78.9996 382.718 78.9996 382.656 79.0032C382.594 79.0067 382.418 79.2043 382.139 79.7825C381.746 80.5547 381.511 80.818 381.273 81.0191C381.152 81.0885 381.162 81.2753 381.225 81.2717L381.349 81.2646C381.411 81.261 381.411 81.261 381.415 81.3233C381.415 81.3233 382.061 80.5991 382.123 80.5955C382.185 80.5919 381.554 81.5652 381.495 81.631C381.517 82.0046 381.689 81.7448 381.917 81.3569C382.144 80.9691 382.365 80.4567 382.427 80.4531C382.489 80.4495 382.496 80.574 382.379 80.7057C382.32 80.7715 381.748 81.679 381.814 81.7377C381.942 81.7928 382.778 81.1201 382.642 80.9405C382.833 80.992 382.705 80.9369 382.829 80.9297C382.594 81.1931 382.488 81.5116 382.561 81.6948C382.564 81.757 382.689 81.7499 382.879 81.8014C383.671 81.4437 384.147 81.0415 384.485 80.3974C385.021 79.9294 384.88 78.5632 384.844 77.9406C384.694 77.5119 384.951 77.6221 384.486 77.149C384.483 77.0868 384.417 77.0281 384.417 77.0281C384.351 76.9694 384.289 76.973 384.285 76.9107C384.219 76.852 381.616 76.1268 381.367 76.1411ZM383.803 68.5052C383.806 68.5675 383.876 68.6884 383.879 68.7507C383.883 68.8129 383.831 69.0033 383.835 69.0656C383.846 69.2523 383.78 69.1937 383.762 68.8823L383.758 68.8201C383.748 68.6333 383.803 68.5052 383.803 68.5052ZM383.371 63.1577L383.374 63.22C383.378 63.2822 383.326 63.4726 383.334 63.5971C383.341 63.7217 383.293 63.9743 383.3 64.0988C383.3 64.0988 383.245 64.2269 383.278 63.7252C383.319 63.3481 383.371 63.1577 383.371 63.1577ZM385.086 62.5596L385.093 62.6841C385.096 62.7463 385.038 62.8122 385.041 62.8744L385.052 63.0612C385.059 63.1858 384.942 63.3174 384.949 63.442C384.949 63.442 384.894 63.5701 384.931 63.1306C384.924 63.0061 384.979 62.878 384.975 62.8158C384.968 62.6912 385.086 62.5596 385.086 62.5596ZM385.289 56.3011L385.292 56.3634C385.296 56.4256 385.178 56.5573 385.186 56.6818C385.193 56.8063 385.141 56.9967 385.082 57.0625C385.082 57.0625 385.02 57.0661 385.123 56.6854C385.171 56.4328 385.289 56.3011 385.289 56.3011ZM388.813 50.2268C388.813 50.2268 388.754 50.2927 388.758 50.3549C388.765 50.4794 388.651 50.6734 388.6 50.8637C388.603 50.926 388.486 51.0577 388.489 51.1199C388.493 51.1822 388.376 51.3139 388.379 51.3761C388.379 51.3761 388.262 51.5078 388.479 50.9332C388.641 50.4866 388.813 50.2268 388.813 50.2268ZM387.619 50.1079C387.619 50.1079 387.502 50.2396 387.447 50.3677L387.392 50.4958C387.285 50.8143 387.289 50.8765 387.402 50.6826C387.402 50.6826 387.458 50.5545 387.454 50.4922C387.45 50.43 387.571 50.3605 387.571 50.3605C387.568 50.2983 387.623 50.1702 387.619 50.1079ZM383.398 72.339C383.808 75.1265 383.135 74.2906 383.398 72.339V72.339ZM387.052 50.0156C386.945 50.334 386.721 50.7842 386.614 51.1026C386.511 51.4833 386.28 51.809 386.177 52.1897C386.074 52.5704 385.905 52.8924 385.802 53.2732C385.534 54.0382 385.262 54.7409 385.055 55.5024C384.739 56.52 384.423 57.5377 384.168 58.5518C384.12 58.8044 384.014 59.1229 383.966 59.3755C383.914 59.5658 383.866 59.8185 383.87 59.8807C383.822 60.1334 383.767 60.2615 383.774 60.386C383.778 60.4482 383.715 60.4518 383.719 60.5141L383.781 60.5105C383.788 60.635 383.674 60.829 383.682 60.9535C383.737 60.8254 383.854 60.6937 383.968 60.4998C384.361 59.7276 384.457 59.2224 384.631 57.9005C384.668 57.4611 384.668 57.4611 384.682 57.7102C384.7 58.0215 384.7 58.0215 384.81 57.7653C384.81 57.7653 384.656 58.3364 384.412 59.5373C384.309 59.918 384.213 60.4232 384.117 60.9285C383.966 61.5618 383.874 62.1293 383.778 62.6346C383.538 63.8977 383.394 64.6556 383.339 64.7837C383.225 64.9776 383.284 64.9118 383.325 64.5346C383.417 63.9671 383.465 63.7145 383.657 62.704L383.654 62.6417C383.897 61.4409 383.956 61.375 383.714 61.5139L383.589 61.521C383.545 61.8359 383.445 62.2789 383.401 62.5938C383.349 62.7841 383.298 62.9745 383.309 63.1613C383.227 63.9156 383.149 64.7322 383.067 65.4865C383.044 66.1749 382.959 66.867 382.936 67.5554L382.965 68.0535C383.013 67.8009 383.053 67.4238 383.039 67.1747C383.025 66.9257 383.073 66.673 383.132 66.6072C383.19 66.5414 383.041 68.299 383.216 71.3499C383.3 71.7199 383.38 72.0277 383.398 72.339C383.391 72.2144 383.512 72.145 383.505 72.0205C383.571 72.0792 383.567 72.0169 383.56 71.8924C383.553 71.7679 383.48 71.5847 383.417 71.5882C383.355 71.5918 383.352 71.5295 383.403 71.3392C383.517 71.1452 383.492 70.7094 383.438 69.7755C383.395 69.0283 383.488 68.4608 383.488 68.4608C383.488 68.4608 383.534 67.0839 383.69 65.4507C383.768 64.6342 383.905 63.7518 384.093 62.679C384.37 60.9765 384.761 59.08 385.39 56.9824C385.703 55.9025 386.027 55.0094 386.236 54.3102C386.498 53.4206 386.777 52.8424 386.88 52.4617C387.097 51.887 387.145 51.6344 387.141 51.5721C387.134 51.4476 386.954 51.5829 386.686 52.3479C386.638 52.6005 386.469 52.9225 386.366 53.3033C385.612 55.408 385.244 56.616 385.539 55.2248C385.69 54.5914 385.738 54.3388 385.315 55.6749C384.995 56.6303 384.951 56.9452 384.988 56.5057C385.07 55.7514 385.493 54.4153 385.731 54.2143C385.79 54.1484 386.183 53.3762 386.451 52.6112C386.506 52.4831 386.565 52.4173 386.558 52.2928C386.775 51.7181 386.823 51.4655 386.768 51.5936C386.43 52.2376 386.232 52.0616 386.559 51.2307C386.776 50.6561 386.956 50.5208 387.029 50.704C387.164 50.8837 387.223 50.8178 387.201 50.4443C387.187 50.1952 387.114 50.012 387.055 50.0778L387.052 50.0156ZM388.605 49.864C388.605 49.864 388.505 50.3069 388.285 50.8193C388.23 50.9474 388.178 51.1378 388.119 51.2036C388.013 51.5221 387.833 51.6574 387.83 51.5951C387.826 51.5328 387.936 51.2766 388.043 50.9582C388.201 50.4493 388.543 49.8675 388.605 49.864ZM389.407 47.5066C389.469 47.5031 389.414 47.6312 389.359 47.7593C389.303 47.8874 389.248 48.0155 389.186 48.019C389.124 48.0226 389.113 47.8358 389.168 47.7077C389.223 47.5796 389.344 47.5102 389.407 47.5066ZM389.333 45.1371L389.216 45.2687C389.102 45.4627 388.926 45.6602 388.874 45.8505C388.823 46.0409 388.712 46.2971 388.609 46.6778C388.565 46.9927 388.565 46.9927 388.73 46.6084C388.785 46.4803 388.833 46.2277 388.947 46.0338L389.12 45.774C389.285 45.3897 389.333 45.1371 389.333 45.1371ZM391.684 40.3795L391.687 40.4418C391.691 40.504 391.577 40.698 391.522 40.8261C391.525 40.8883 391.467 40.9542 391.47 41.0164C391.474 41.0787 391.353 41.1481 391.357 41.2104C391.246 41.4666 391.298 41.2762 391.463 40.8919C391.57 40.5734 391.684 40.3795 391.684 40.3795ZM391.427 40.2693C391.431 40.3315 391.225 41.093 390.894 41.8616C390.898 41.9239 390.835 41.9274 390.839 41.9897C390.674 42.374 390.505 42.696 390.391 42.89C390.277 43.0839 390.218 43.1497 390.215 43.0875C390.208 42.9629 390.48 42.2602 390.81 41.4916C391.145 40.7853 391.427 40.2693 391.427 40.2693ZM394.526 32.2205C394.215 32.2383 394.035 32.3736 394.06 32.8094C394.085 33.2453 394 33.9373 393.732 34.7023C393.081 36.4263 392.427 38.088 392.364 38.0916C392.364 38.0916 392.905 36.6238 393.548 34.7753C393.497 34.9657 393.379 35.0973 393.324 35.2254C393.328 35.2877 393.269 35.3535 393.273 35.4158L393.214 35.4816C393.218 35.5439 393.1 35.6756 393.104 35.7378C392.946 36.2467 393.059 36.0527 392.725 36.7591L392.667 36.8249L392.611 36.953C392.56 37.1433 392.391 37.4654 392.339 37.6557C392.229 37.9119 392.181 38.1646 392.071 38.4208L392.195 38.4136C392.316 38.3442 392.265 38.5346 392.107 39.0434C391.721 39.9401 391.586 39.7605 391.803 39.1858C391.913 38.9296 391.909 38.8673 391.854 38.9954C391.803 39.1858 391.623 39.321 391.571 39.5114L391.406 39.8957C391.292 40.0896 391.296 40.1519 391.296 40.1519C391.189 40.4704 391.02 40.7924 390.914 41.1109L390.855 41.1767L390.858 41.239L390.851 41.1144C390.689 41.561 390.59 42.004 390.362 42.3919C390.307 42.52 390.131 42.7175 390.076 42.8456C390.08 42.9078 390.017 42.9114 390.021 42.9737C389.911 43.2299 389.632 43.8081 389.521 44.0643L389.525 44.1266C389.322 44.9503 389.513 45.0018 389.84 44.171C390.005 43.7867 390.115 43.5305 390.123 43.655C390.13 43.7795 389.703 45.0534 389.093 46.4002C388.483 47.747 388.167 48.7647 388.281 48.5707C388.395 48.3768 388.629 48.1135 388.688 48.0476C388.809 47.9782 388.802 47.8537 388.74 47.8573C388.677 47.8608 388.78 47.4801 389.001 46.9677C389.328 46.1368 389.266 46.1404 389.115 46.7738C389.063 46.9641 389.019 47.279 388.967 47.4694L389.239 46.7666C389.404 46.3823 389.508 46.0016 389.504 45.9393C389.435 45.8184 389.49 45.6903 389.666 45.4928C389.959 45.1636 390.18 44.6512 390 44.7864C389.941 44.8523 390.768 42.9308 391.051 42.4148C391.389 41.7707 392.855 37.9385 392.951 37.4332C392.996 37.1183 393.11 36.9244 393.172 36.9208C393.234 36.9173 393.671 35.8302 394.212 34.3624C394.539 33.5316 394.546 33.6561 394.278 34.4211C394.009 35.1861 393.689 36.1415 393.421 36.9065C392.278 39.8457 391.286 42.1515 391.403 42.0198C391.403 42.0198 391.3 42.4005 390.91 43.2349C390.466 44.1975 390.135 44.9661 390.146 45.1529C390.157 45.3397 390.057 45.7826 389.892 46.1669C389.671 46.6793 389.609 46.6829 389.654 46.368C389.698 46.0531 389.588 46.3093 389.202 47.206C388.761 48.2308 388.713 48.4835 388.841 48.5386C388.907 48.5973 388.911 48.6595 388.848 48.6631C388.786 48.6667 388.437 49.124 388.279 49.6328C388.059 50.1452 388.021 50.5846 388.084 50.581C388.146 50.5774 388.087 50.6433 387.97 50.7749C387.911 50.8408 387.632 51.419 387.198 52.5683C386.816 53.5273 386.114 55.4416 385.433 57.7296C384.863 59.7613 384.52 61.4051 384.283 62.7305C383.862 65.191 383.68 67.4503 383.641 68.9517C383.581 70.0796 383.62 70.7645 383.682 70.761C383.745 70.7574 383.855 70.5012 383.84 70.2521C383.881 69.875 383.885 69.9372 383.91 70.3731C383.91 70.3731 383.876 68.6884 384.018 66.8062C384.156 64.8618 384.55 63.0276 384.609 62.9617C384.609 62.9617 384.284 64.9169 384.16 67.1104C384.047 69.4907 384.161 71.4831 384.197 72.1057C384.585 74.5197 384.387 72.1573 384.349 70.4103C384.261 67.7917 384.43 65.2833 384.851 62.8229C385.039 61.7501 385.183 60.9923 385.235 60.8019C385.348 60.608 385.26 61.2377 384.968 62.6912C384.968 62.6912 384.91 62.7571 384.913 62.8193C384.776 63.7017 384.499 65.4043 384.441 67.6565C384.369 69.6596 384.476 71.5275 384.538 71.5239C384.6 71.5203 384.607 69.4585 384.738 67.3895C384.869 65.3206 385.253 63.2996 385.239 63.0505L385.356 62.9188C385.411 62.7907 385.349 62.7943 385.518 62.4723C385.525 62.5968 385.411 62.7907 385.418 62.9153C384.997 65.3757 384.991 67.4375 385.099 68.2434C385.124 68.6792 385.231 68.3607 385.452 67.8483C385.666 66.1494 385.947 64.5091 386.301 63.052C387.005 60.0756 388.012 56.9569 389.156 54.0177C389.207 53.8274 389.387 53.6921 389.438 53.5017C391.147 49.5307 393.646 43.0155 395.131 39.4945C395.929 37.0749 396.072 37.3791 396.445 35.1713C396.555 34.9151 396.662 34.5966 396.772 34.3404C396.813 33.9633 396.757 34.0914 396.861 33.7107C396.96 33.2677 395.398 32.1704 394.526 32.2205Z" fill="white" fill-opacity="0.7"/>
</svg>
