<svg width="62" height="54" viewBox="0 0 62 54" fill="none" xmlns="http://www.w3.org/2000/svg">
<path d="M0.0505784 12.4156C0.0505781 8.76772 1.18268 5.81166 3.4469 3.54744C5.71111 1.28322 8.66718 0.151116 12.3151 0.151115C15.8372 0.151115 18.7933 1.40901 21.1833 3.92481C23.5733 6.5664 24.7683 10.2772 24.7683 15.0572C24.7683 19.8372 23.1959 25.6236 20.0512 32.4162C16.7806 39.2088 11.9377 46.2531 5.52243 53.5489L1.18269 49.7752C5.45954 44.7436 8.4156 40.1523 10.0509 36.0012C11.6861 31.9759 12.6296 28.2651 12.8811 24.8688L12.3151 24.8688C8.66718 24.8688 5.71112 23.7367 3.4469 21.4725C1.18269 19.2083 0.0505787 16.1893 0.0505784 12.4156ZM36.4667 12.4156C36.4667 8.76772 37.5988 5.81166 39.863 3.54744C42.1273 1.28322 45.0833 0.151112 48.7312 0.151112C52.2533 0.151112 55.2094 1.40901 57.5994 3.92481C59.9894 6.56639 61.1844 10.2772 61.1844 15.0572C61.1844 19.8372 59.612 25.6235 56.4673 32.4162C53.1968 39.2088 48.3539 46.2531 41.9386 53.5489L37.5988 49.7752C41.8757 44.7436 44.8317 40.1523 46.467 36.0012C48.1023 31.9759 49.0457 28.2651 49.2973 24.8688L48.7312 24.8688C45.0833 24.8688 42.1273 23.7367 39.863 21.4725C37.5988 19.2083 36.4667 16.1893 36.4667 12.4156Z" fill="#19312E"/>
</svg>
