<svg width="62" height="54" viewBox="0 0 62 54" fill="none" xmlns="http://www.w3.org/2000/svg">
<path d="M61.5979 41.4596C61.5979 45.1075 60.4657 48.0636 58.2015 50.3278C55.9373 52.592 52.9813 53.7241 49.3333 53.7241C45.8112 53.7241 42.8552 52.4662 40.4652 49.9504C38.0752 47.3089 36.8802 43.5981 36.8802 38.818C36.8802 34.038 38.4525 28.2517 41.5973 21.4591C44.8678 14.6664 49.7107 7.62217 56.126 0.326361L60.4657 4.10006C56.1889 9.13165 53.2328 13.723 51.5976 17.874C49.9623 21.8993 49.0189 25.6101 48.7673 29.0064H49.3333C52.9813 29.0064 55.9373 30.1385 58.2015 32.4028C60.4657 34.667 61.5979 37.6859 61.5979 41.4596ZM25.1817 41.4596C25.1817 45.1075 24.0496 48.0636 21.7854 50.3278C19.5212 52.592 16.5651 53.7241 12.9172 53.7241C9.39509 53.7241 6.43903 52.4662 4.04902 49.9504C1.65902 47.3089 0.464014 43.5981 0.464014 38.818C0.464014 34.038 2.03639 28.2517 5.18113 21.4591C8.45167 14.6664 13.2946 7.62217 19.7099 0.326361L24.0496 4.10006C19.7727 9.13165 16.8167 13.723 15.1814 17.874C13.5462 21.8993 12.6027 25.6101 12.3511 29.0064H12.9172C16.5651 29.0064 19.5212 30.1385 21.7854 32.4028C24.0496 34.667 25.1817 37.6859 25.1817 41.4596Z" fill="#19312E"/>
</svg>
